<?xml version="1.0" encoding="UTF-8"?>
<svg xmlns="http://www.w3.org/2000/svg" xmlns:xlink="http://www.w3.org/1999/xlink" width="257px" height="48px" viewBox="0 0 257 48" version="1.1">
<g id="surface1">
<path style=" stroke:none;fill-rule:nonzero;fill:rgb(17.647059%,20.392157%,28.235294%);fill-opacity:1;" d="M 78.574219 30.167969 C 78.449219 30.167969 78.339844 30.117188 78.234375 30.015625 C 78.128906 29.910156 78.082031 29.796875 78.082031 29.65625 L 78.082031 28.890625 C 78.082031 28.742188 78.128906 28.625 78.234375 28.519531 C 78.339844 28.414062 78.449219 28.367188 78.574219 28.367188 L 79.160156 28.367188 L 79.160156 21.003906 L 75.722656 21.003906 L 75.722656 28.367188 L 76.199219 28.367188 C 76.34375 28.367188 76.457031 28.414062 76.550781 28.515625 C 76.644531 28.617188 76.691406 28.742188 76.691406 28.890625 L 76.691406 29.65625 C 76.691406 29.796875 76.644531 29.917969 76.550781 30.019531 C 76.457031 30.121094 76.34375 30.167969 76.199219 30.167969 L 72.492188 30.167969 C 72.367188 30.167969 72.253906 30.117188 72.152344 30.011719 C 72.050781 29.910156 72 29.792969 72 29.65625 L 72 28.890625 C 72 28.742188 72.046875 28.625 72.152344 28.519531 C 72.253906 28.417969 72.367188 28.367188 72.492188 28.367188 L 73.203125 28.367188 L 73.203125 21.003906 L 72.554688 21.003906 C 72.425781 21.003906 72.320312 20.953125 72.214844 20.851562 C 72.109375 20.746094 72.0625 20.632812 72.0625 20.496094 L 72.0625 19.726562 C 72.0625 19.578125 72.109375 19.460938 72.214844 19.355469 C 72.320312 19.253906 72.425781 19.203125 72.554688 19.203125 L 82.21875 19.203125 C 82.367188 19.203125 82.476562 19.25 82.570312 19.351562 C 82.664062 19.453125 82.710938 19.578125 82.710938 19.726562 L 82.710938 20.496094 C 82.710938 20.636719 82.664062 20.753906 82.570312 20.855469 C 82.476562 20.957031 82.367188 21.003906 82.21875 21.003906 L 81.679688 21.003906 L 81.679688 28.367188 L 82.265625 28.367188 C 82.410156 28.367188 82.523438 28.414062 82.617188 28.515625 C 82.710938 28.617188 82.757812 28.742188 82.757812 28.890625 L 82.757812 29.65625 C 82.757812 29.796875 82.710938 29.917969 82.617188 30.019531 C 82.523438 30.121094 82.410156 30.167969 82.265625 30.167969 Z M 88.1875 24.316406 L 89.617188 24.316406 C 89.875 24.316406 90.097656 24.265625 90.28125 24.164062 C 90.46875 24.0625 90.613281 23.917969 90.71875 23.746094 C 90.8125 23.582031 90.882812 23.402344 90.925781 23.207031 C 90.964844 23.019531 90.984375 22.824219 90.984375 22.621094 C 90.984375 22.417969 90.964844 22.222656 90.921875 22.039062 C 90.878906 21.839844 90.792969 21.660156 90.667969 21.503906 C 90.542969 21.34375 90.363281 21.21875 90.144531 21.128906 C 89.9375 21.046875 89.667969 21.003906 89.351562 21.003906 L 88.1875 21.003906 Z M 85.003906 30.167969 C 84.875 30.167969 84.765625 30.117188 84.664062 30.015625 C 84.558594 29.910156 84.511719 29.796875 84.511719 29.65625 L 84.511719 28.890625 C 84.511719 28.742188 84.558594 28.625 84.664062 28.519531 C 84.765625 28.414062 84.875 28.367188 85.003906 28.367188 L 85.683594 28.367188 L 85.683594 21.003906 L 85.003906 21.003906 C 84.875 21.003906 84.765625 20.953125 84.664062 20.851562 C 84.558594 20.746094 84.511719 20.632812 84.511719 20.496094 L 84.511719 19.726562 C 84.511719 19.578125 84.558594 19.460938 84.664062 19.355469 C 84.765625 19.253906 84.875 19.203125 85.003906 19.203125 L 89.648438 19.203125 C 90.527344 19.203125 91.234375 19.316406 91.746094 19.542969 C 92.25 19.769531 92.636719 20.046875 92.894531 20.375 C 93.152344 20.707031 93.320312 21.066406 93.398438 21.445312 C 93.476562 21.84375 93.515625 22.226562 93.515625 22.574219 C 93.515625 23.6875 93.1875 24.542969 92.539062 25.109375 C 91.882812 25.683594 90.960938 25.976562 89.804688 25.976562 L 88.1875 25.976562 L 88.1875 28.367188 L 89.035156 28.367188 C 89.183594 28.367188 89.292969 28.414062 89.386719 28.515625 C 89.484375 28.617188 89.53125 28.742188 89.53125 28.890625 L 89.53125 29.65625 C 89.53125 29.796875 89.484375 29.917969 89.386719 30.019531 C 89.292969 30.121094 89.183594 30.167969 89.035156 30.167969 Z M 116.292969 23.207031 C 115.980469 23.207031 115.695312 23.289062 115.4375 23.445312 C 115.203125 23.59375 114.96875 23.796875 114.746094 24.050781 L 114.691406 24.113281 L 114.691406 25.445312 L 114.753906 25.511719 C 114.933594 25.703125 115.175781 25.859375 115.472656 25.96875 C 115.765625 26.078125 116.011719 26.128906 116.214844 26.128906 C 116.296875 26.128906 116.410156 26.121094 116.5625 26.097656 C 116.726562 26.070312 116.886719 26.011719 117.042969 25.917969 C 117.199219 25.824219 117.339844 25.695312 117.457031 25.527344 C 117.578125 25.351562 117.648438 25.113281 117.660156 24.820312 L 117.660156 24.652344 C 117.660156 24.367188 117.613281 24.128906 117.519531 23.9375 C 117.429688 23.746094 117.308594 23.59375 117.167969 23.480469 C 117.027344 23.371094 116.871094 23.300781 116.703125 23.261719 C 116.550781 23.226562 116.414062 23.207031 116.292969 23.207031 Z M 110.804688 23.238281 C 110.710938 23.238281 110.59375 23.25 110.441406 23.273438 C 110.277344 23.296875 110.113281 23.363281 109.957031 23.464844 C 109.796875 23.5625 109.660156 23.707031 109.542969 23.890625 C 109.421875 24.082031 109.359375 24.339844 109.359375 24.652344 L 109.359375 24.777344 C 109.359375 25.054688 109.40625 25.289062 109.503906 25.46875 C 109.597656 25.652344 109.714844 25.796875 109.859375 25.898438 C 109.996094 26 110.148438 26.070312 110.308594 26.109375 C 110.453125 26.144531 110.589844 26.160156 110.710938 26.160156 C 111.023438 26.160156 111.3125 26.082031 111.570312 25.925781 C 111.8125 25.78125 112.050781 25.574219 112.273438 25.320312 L 112.328125 25.253906 L 112.328125 23.917969 L 112.265625 23.851562 C 112.101562 23.691406 111.894531 23.546875 111.648438 23.425781 C 111.390625 23.300781 111.109375 23.238281 110.804688 23.238281 Z M 111.914062 30.167969 C 111.785156 30.167969 111.679688 30.117188 111.574219 30.011719 C 111.472656 29.910156 111.421875 29.792969 111.421875 29.65625 L 111.421875 28.890625 C 111.421875 28.742188 111.46875 28.625 111.574219 28.519531 C 111.679688 28.414062 111.789062 28.367188 111.914062 28.367188 L 112.328125 28.367188 L 112.328125 26.988281 L 111.546875 27.425781 C 111.390625 27.519531 111.21875 27.601562 111.035156 27.683594 C 110.855469 27.761719 110.648438 27.828125 110.425781 27.882812 C 110.203125 27.933594 109.945312 27.960938 109.664062 27.960938 C 109.371094 27.960938 109.042969 27.917969 108.6875 27.828125 C 108.34375 27.742188 108.023438 27.582031 107.730469 27.355469 C 107.441406 27.125 107.195312 26.804688 106.996094 26.398438 C 106.800781 25.996094 106.699219 25.460938 106.699219 24.808594 L 106.699219 24.527344 C 106.710938 23.875 106.832031 23.34375 107.058594 22.945312 C 107.292969 22.542969 107.574219 22.226562 107.898438 22.003906 C 108.230469 21.773438 108.574219 21.617188 108.933594 21.535156 C 109.296875 21.453125 109.621094 21.410156 109.898438 21.410156 C 110.0625 21.410156 110.320312 21.441406 110.660156 21.503906 C 110.992188 21.570312 111.441406 21.761719 111.988281 22.082031 L 112.328125 22.28125 L 112.328125 21.003906 L 111.992188 21.003906 C 111.867188 21.003906 111.757812 20.953125 111.652344 20.851562 C 111.550781 20.746094 111.5 20.632812 111.5 20.496094 L 111.5 19.726562 C 111.5 19.578125 111.550781 19.460938 111.652344 19.355469 C 111.757812 19.253906 111.867188 19.203125 111.992188 19.203125 L 115.105469 19.203125 C 115.25 19.203125 115.363281 19.25 115.453125 19.351562 C 115.550781 19.453125 115.597656 19.578125 115.597656 19.726562 L 115.597656 20.496094 C 115.597656 20.636719 115.550781 20.753906 115.453125 20.855469 C 115.363281 20.957031 115.25 21.003906 115.105469 21.003906 L 114.691406 21.003906 L 114.691406 22.371094 L 115.023438 22.195312 C 115.164062 22.121094 115.3125 22.035156 115.472656 21.9375 C 115.621094 21.851562 115.785156 21.765625 115.976562 21.6875 C 116.164062 21.609375 116.371094 21.539062 116.589844 21.488281 C 116.804688 21.433594 117.058594 21.410156 117.34375 21.410156 C 117.644531 21.410156 117.976562 21.457031 118.332031 21.550781 C 118.671875 21.640625 118.996094 21.804688 119.285156 22.039062 C 119.578125 22.269531 119.824219 22.601562 120.019531 23.023438 C 120.21875 23.441406 120.320312 23.992188 120.320312 24.652344 L 120.320312 24.839844 C 120.320312 25.496094 120.210938 26.03125 119.988281 26.425781 C 119.769531 26.828125 119.492188 27.144531 119.175781 27.371094 C 118.851562 27.59375 118.5 27.753906 118.136719 27.835938 C 117.757812 27.917969 117.421875 27.960938 117.136719 27.960938 C 117.058594 27.960938 116.949219 27.957031 116.816406 27.953125 C 116.699219 27.949219 116.558594 27.925781 116.390625 27.882812 C 116.214844 27.839844 116.015625 27.769531 115.792969 27.679688 C 115.570312 27.589844 115.316406 27.460938 115.035156 27.289062 L 114.691406 27.082031 L 114.691406 28.367188 L 115.027344 28.367188 C 115.171875 28.367188 115.285156 28.414062 115.378906 28.515625 C 115.472656 28.617188 115.519531 28.742188 115.519531 28.890625 L 115.519531 29.65625 C 115.519531 29.796875 115.472656 29.917969 115.378906 30.019531 C 115.285156 30.121094 115.171875 30.167969 115.027344 30.167969 Z M 129.054688 30.167969 C 128.925781 30.167969 128.816406 30.117188 128.714844 30.015625 C 128.609375 29.910156 128.5625 29.796875 128.5625 29.65625 L 128.5625 28.890625 C 128.5625 28.742188 128.609375 28.625 128.714844 28.519531 C 128.816406 28.414062 128.925781 28.367188 129.054688 28.367188 L 129.78125 28.367188 L 129.78125 23.820312 L 125.480469 28.367188 L 126.519531 28.367188 C 126.648438 28.367188 126.757812 28.414062 126.859375 28.519531 C 126.964844 28.625 127.015625 28.742188 127.015625 28.890625 L 127.015625 29.65625 C 127.015625 29.796875 126.964844 29.910156 126.859375 30.011719 C 126.757812 30.117188 126.648438 30.167969 126.519531 30.167969 L 122.644531 30.167969 C 122.515625 30.167969 122.40625 30.117188 122.304688 30.015625 C 122.199219 29.910156 122.148438 29.792969 122.148438 29.65625 L 122.148438 28.890625 C 122.148438 28.742188 122.199219 28.625 122.304688 28.519531 C 122.40625 28.417969 122.515625 28.367188 122.644531 28.367188 L 123.371094 28.367188 L 123.371094 21.003906 L 122.660156 21.003906 C 122.53125 21.003906 122.421875 20.953125 122.316406 20.851562 C 122.214844 20.746094 122.164062 20.632812 122.164062 20.496094 L 122.164062 19.726562 C 122.164062 19.578125 122.214844 19.460938 122.320312 19.355469 C 122.421875 19.253906 122.53125 19.203125 122.660156 19.203125 L 126.316406 19.203125 C 126.445312 19.203125 126.554688 19.253906 126.660156 19.355469 C 126.761719 19.460938 126.8125 19.578125 126.8125 19.726562 L 126.8125 20.496094 C 126.8125 20.632812 126.761719 20.746094 126.660156 20.851562 C 126.554688 20.953125 126.445312 21.003906 126.316406 21.003906 L 125.886719 21.003906 L 125.886719 25.488281 L 130.125 21.003906 L 129.398438 21.003906 C 129.269531 21.003906 129.164062 20.953125 129.058594 20.851562 C 128.953125 20.746094 128.90625 20.632812 128.90625 20.496094 L 128.90625 19.726562 C 128.90625 19.578125 128.953125 19.460938 129.058594 19.355469 C 129.164062 19.253906 129.269531 19.203125 129.398438 19.203125 L 132.902344 19.203125 C 133.027344 19.203125 133.136719 19.253906 133.242188 19.355469 C 133.34375 19.460938 133.394531 19.578125 133.394531 19.726562 L 133.394531 20.496094 C 133.394531 20.632812 133.34375 20.746094 133.242188 20.851562 C 133.136719 20.953125 133.027344 21.003906 132.902344 21.003906 L 132.300781 21.003906 L 132.300781 28.367188 L 132.886719 28.367188 C 133.011719 28.367188 133.121094 28.417969 133.226562 28.519531 C 133.328125 28.625 133.378906 28.742188 133.378906 28.890625 L 133.378906 29.65625 C 133.378906 29.796875 133.328125 29.910156 133.226562 30.011719 C 133.121094 30.117188 133.011719 30.167969 132.886719 30.167969 Z M 154.222656 21.230469 L 154.222656 21.902344 L 153.304688 25.097656 L 155.863281 25.097656 L 154.667969 21.003906 L 154.269531 21.003906 Z M 155.949219 30.167969 C 155.824219 30.167969 155.714844 30.117188 155.609375 30.015625 C 155.507812 29.910156 155.457031 29.792969 155.457031 29.65625 L 155.457031 28.890625 C 155.457031 28.742188 155.507812 28.625 155.609375 28.519531 C 155.714844 28.414062 155.824219 28.367188 155.949219 28.367188 L 156.984375 28.367188 L 156.394531 26.585938 L 152.886719 26.585938 L 152.382812 28.367188 L 153.246094 28.367188 C 153.390625 28.367188 153.503906 28.414062 153.597656 28.515625 C 153.691406 28.617188 153.738281 28.742188 153.738281 28.890625 L 153.738281 29.65625 C 153.738281 29.796875 153.691406 29.917969 153.597656 30.019531 C 153.503906 30.121094 153.390625 30.167969 153.246094 30.167969 L 149.539062 30.167969 C 149.414062 30.167969 149.304688 30.117188 149.199219 30.015625 C 149.09375 29.910156 149.046875 29.796875 149.046875 29.65625 L 149.046875 28.890625 C 149.046875 28.742188 149.09375 28.625 149.199219 28.519531 C 149.304688 28.417969 149.414062 28.367188 149.539062 28.367188 L 150.109375 28.367188 L 152.558594 21.003906 L 152.042969 21.003906 C 151.914062 21.003906 151.804688 20.953125 151.699219 20.851562 C 151.597656 20.746094 151.550781 20.632812 151.550781 20.496094 L 151.550781 19.726562 C 151.550781 19.578125 151.597656 19.460938 151.703125 19.355469 C 151.804688 19.253906 151.914062 19.203125 152.042969 19.203125 L 157.453125 19.203125 C 157.597656 19.203125 157.710938 19.25 157.804688 19.351562 C 157.898438 19.453125 157.945312 19.578125 157.945312 19.726562 L 157.945312 20.496094 C 157.945312 20.636719 157.898438 20.753906 157.804688 20.855469 C 157.710938 20.957031 157.597656 21.003906 157.453125 21.003906 L 156.9375 21.003906 L 159.386719 28.367188 L 160.050781 28.367188 C 160.195312 28.367188 160.304688 28.414062 160.398438 28.515625 C 160.496094 28.617188 160.542969 28.742188 160.542969 28.890625 L 160.542969 29.65625 C 160.542969 29.796875 160.496094 29.917969 160.398438 30.019531 C 160.304688 30.121094 160.195312 30.167969 160.050781 30.167969 Z M 170.039062 30.167969 C 169.914062 30.167969 169.804688 30.117188 169.699219 30.015625 C 169.597656 29.910156 169.546875 29.792969 169.546875 29.65625 L 169.546875 28.890625 C 169.546875 28.742188 169.597656 28.625 169.699219 28.519531 C 169.804688 28.417969 169.914062 28.367188 170.039062 28.367188 L 170.703125 28.367188 L 170.703125 25.367188 L 166.5 25.367188 L 166.5 28.367188 L 167.195312 28.367188 C 167.339844 28.367188 167.453125 28.414062 167.546875 28.511719 C 167.640625 28.617188 167.6875 28.742188 167.6875 28.890625 L 167.6875 29.65625 C 167.6875 29.796875 167.640625 29.917969 167.546875 30.019531 C 167.453125 30.121094 167.339844 30.167969 167.195312 30.167969 L 163.269531 30.167969 C 163.144531 30.167969 163.03125 30.117188 162.929688 30.011719 C 162.824219 29.910156 162.777344 29.792969 162.777344 29.65625 L 162.777344 28.890625 C 162.777344 28.742188 162.824219 28.625 162.929688 28.519531 C 163.03125 28.417969 163.144531 28.367188 163.269531 28.367188 L 163.980469 28.367188 L 163.980469 21.003906 L 163.347656 21.003906 C 163.222656 21.003906 163.113281 20.953125 163.007812 20.851562 C 162.902344 20.746094 162.855469 20.632812 162.855469 20.496094 L 162.855469 19.726562 C 162.855469 19.578125 162.90625 19.460938 163.007812 19.355469 C 163.113281 19.253906 163.222656 19.203125 163.347656 19.203125 L 167.210938 19.203125 C 167.355469 19.203125 167.46875 19.25 167.5625 19.351562 C 167.65625 19.453125 167.703125 19.578125 167.703125 19.726562 L 167.703125 20.496094 C 167.703125 20.636719 167.65625 20.753906 167.5625 20.855469 C 167.46875 20.957031 167.355469 21.003906 167.210938 21.003906 L 166.5 21.003906 L 166.5 23.707031 L 170.703125 23.707031 L 170.703125 21.003906 L 170.058594 21.003906 C 169.929688 21.003906 169.820312 20.953125 169.714844 20.851562 C 169.613281 20.746094 169.5625 20.632812 169.5625 20.496094 L 169.5625 19.726562 C 169.5625 19.578125 169.613281 19.460938 169.71875 19.355469 C 169.820312 19.253906 169.929688 19.203125 170.058594 19.203125 L 173.839844 19.203125 C 173.984375 19.203125 174.097656 19.25 174.191406 19.351562 C 174.285156 19.453125 174.335938 19.578125 174.335938 19.726562 L 174.335938 20.496094 C 174.335938 20.636719 174.285156 20.753906 174.191406 20.855469 C 174.097656 20.957031 173.984375 21.003906 173.839844 21.003906 L 173.222656 21.003906 L 173.222656 28.367188 L 173.824219 28.367188 C 173.972656 28.367188 174.082031 28.414062 174.175781 28.515625 C 174.273438 28.617188 174.316406 28.742188 174.316406 28.890625 L 174.316406 29.65625 C 174.316406 29.796875 174.273438 29.917969 174.175781 30.019531 C 174.082031 30.121094 173.972656 30.167969 173.824219 30.167969 Z M 137.21875 30.214844 C 137.027344 30.214844 136.820312 30.191406 136.605469 30.148438 C 136.386719 30.101562 136.171875 30.046875 135.960938 29.976562 C 135.84375 29.9375 135.746094 29.867188 135.664062 29.765625 C 135.59375 29.679688 135.566406 29.542969 135.582031 29.363281 L 135.707031 27.355469 C 135.707031 27.214844 135.757812 27.105469 135.859375 27.003906 C 135.964844 26.898438 136.078125 26.851562 136.214844 26.851562 L 136.890625 26.851562 C 137.003906 26.851562 137.148438 26.867188 137.207031 26.949219 C 137.289062 27.054688 137.359375 27.199219 137.425781 27.386719 L 137.746094 28.320312 L 138 27.9375 C 138.308594 27.472656 138.503906 26.960938 138.582031 26.414062 C 138.65625 25.890625 138.695312 25.335938 138.695312 24.765625 L 138.695312 21.003906 L 137.9375 21.003906 C 137.808594 21.003906 137.699219 20.953125 137.597656 20.851562 C 137.492188 20.746094 137.445312 20.632812 137.445312 20.496094 L 137.445312 19.726562 C 137.445312 19.578125 137.492188 19.460938 137.597656 19.355469 C 137.699219 19.253906 137.808594 19.203125 137.9375 19.203125 L 146.300781 19.203125 C 146.449219 19.203125 146.558594 19.25 146.652344 19.351562 C 146.75 19.453125 146.796875 19.578125 146.796875 19.726562 L 146.796875 20.496094 C 146.796875 20.636719 146.75 20.753906 146.652344 20.855469 C 146.558594 20.957031 146.449219 21.003906 146.300781 21.003906 L 145.765625 21.003906 L 145.765625 28.367188 L 146.285156 28.367188 C 146.433594 28.367188 146.542969 28.414062 146.636719 28.511719 C 146.734375 28.617188 146.78125 28.742188 146.78125 28.890625 L 146.78125 29.65625 C 146.78125 29.796875 146.734375 29.917969 146.636719 30.019531 C 146.542969 30.121094 146.433594 30.167969 146.285156 30.167969 L 142.488281 30.167969 C 142.359375 30.167969 142.25 30.117188 142.144531 30.015625 C 142.042969 29.910156 141.992188 29.792969 141.992188 29.65625 L 141.992188 28.890625 C 141.992188 28.742188 142.042969 28.625 142.148438 28.519531 C 142.25 28.414062 142.359375 28.367188 142.488281 28.367188 L 143.246094 28.367188 L 143.246094 21.003906 L 141.058594 21.003906 L 141.058594 23.667969 C 141.058594 24.074219 141.050781 24.496094 141.035156 24.933594 C 141.019531 25.367188 140.980469 25.800781 140.917969 26.230469 C 140.859375 26.65625 140.757812 27.074219 140.621094 27.472656 C 140.488281 27.871094 140.300781 28.238281 140.066406 28.574219 C 139.691406 29.105469 139.253906 29.519531 138.769531 29.796875 C 138.292969 30.074219 137.769531 30.214844 137.21875 30.214844 Z M 100.09375 20.941406 C 99.269531 20.941406 98.644531 21.226562 98.238281 21.792969 C 97.84375 22.335938 97.644531 23.132812 97.644531 24.167969 L 97.644531 25.199219 C 97.644531 26.234375 97.84375 27.035156 98.238281 27.578125 C 98.644531 28.144531 99.269531 28.429688 100.09375 28.429688 C 100.917969 28.429688 101.542969 28.144531 101.949219 27.578125 C 102.339844 27.035156 102.539062 26.234375 102.539062 25.199219 L 102.539062 24.167969 C 102.539062 23.144531 102.339844 22.347656 101.949219 21.800781 C 101.542969 21.230469 100.917969 20.941406 100.09375 20.941406 Z M 99.984375 30.371094 C 99.390625 30.359375 98.792969 30.285156 98.21875 30.15625 C 97.664062 30.03125 97.136719 29.761719 96.65625 29.359375 C 96.28125 29.050781 95.976562 28.71875 95.757812 28.371094 C 95.535156 28.023438 95.367188 27.644531 95.25 27.257812 C 95.136719 26.859375 95.0625 26.445312 95.027344 26.019531 C 94.988281 25.585938 94.972656 25.136719 94.972656 24.683594 C 94.972656 24.246094 94.988281 23.800781 95.027344 23.367188 C 95.0625 22.941406 95.136719 22.527344 95.25 22.128906 C 95.367188 21.738281 95.535156 21.359375 95.757812 21.003906 C 95.976562 20.652344 96.28125 20.320312 96.65625 20.011719 C 97.144531 19.609375 97.691406 19.339844 98.273438 19.207031 C 98.878906 19.070312 99.488281 19 100.09375 19 C 100.695312 19 101.308594 19.070312 101.910156 19.207031 C 102.496094 19.339844 103.039062 19.609375 103.53125 20.011719 C 103.90625 20.320312 104.207031 20.652344 104.429688 21.003906 C 104.652344 21.363281 104.820312 21.742188 104.933594 22.128906 C 105.050781 22.527344 105.125 22.941406 105.160156 23.367188 C 105.195312 23.804688 105.214844 24.25 105.214844 24.683594 C 105.214844 25.128906 105.195312 25.578125 105.160156 26.011719 C 105.125 26.429688 105.050781 26.84375 104.933594 27.242188 C 104.820312 27.628906 104.652344 28.007812 104.429688 28.363281 C 104.207031 28.71875 103.90625 29.050781 103.53125 29.355469 C 103.046875 29.75 102.519531 30.019531 101.964844 30.15625 C 101.386719 30.296875 100.796875 30.371094 100.203125 30.371094 Z M 181.722656 30.371094 C 179.933594 30.371094 178.625 29.878906 177.824219 28.910156 C 177.011719 27.929688 176.601562 26.507812 176.601562 24.683594 C 176.601562 24.25 176.617188 23.804688 176.65625 23.367188 C 176.6875 22.945312 176.765625 22.527344 176.882812 22.128906 C 176.992188 21.738281 177.164062 21.363281 177.386719 21.003906 C 177.605469 20.652344 177.910156 20.320312 178.285156 20.011719 C 178.777344 19.609375 179.320312 19.339844 179.902344 19.207031 C 180.507812 19.070312 181.117188 19 181.722656 19 C 182.15625 19 182.644531 19.042969 183.171875 19.128906 C 183.695312 19.214844 184.1875 19.355469 184.636719 19.546875 C 184.875 19.644531 185.066406 19.792969 185.226562 20 C 185.375 20.191406 185.4375 20.4375 185.421875 20.746094 L 185.328125 22.152344 C 185.3125 22.300781 185.257812 22.425781 185.160156 22.523438 C 185.066406 22.617188 184.953125 22.660156 184.804688 22.660156 L 183.800781 22.660156 C 183.660156 22.660156 183.550781 22.617188 183.449219 22.519531 C 183.351562 22.421875 183.292969 22.300781 183.277344 22.144531 L 183.164062 21.160156 L 182.996094 21.132812 C 182.824219 21.101562 182.660156 21.066406 182.492188 21.019531 C 182.296875 20.964844 182.046875 20.941406 181.722656 20.941406 C 180.898438 20.941406 180.273438 21.226562 179.867188 21.792969 C 179.472656 22.335938 179.277344 23.132812 179.277344 24.167969 L 179.277344 25.199219 C 179.277344 25.566406 179.308594 25.941406 179.371094 26.3125 C 179.441406 26.695312 179.566406 27.046875 179.746094 27.355469 C 179.929688 27.675781 180.183594 27.933594 180.5 28.128906 C 180.824219 28.328125 181.234375 28.429688 181.722656 28.429688 C 181.972656 28.429688 182.21875 28.414062 182.457031 28.378906 C 182.707031 28.347656 182.949219 28.277344 183.175781 28.175781 L 183.308594 28.117188 L 183.308594 26.84375 C 183.308594 26.714844 183.359375 26.605469 183.460938 26.503906 C 183.566406 26.398438 183.679688 26.351562 183.816406 26.351562 L 185.007812 26.351562 C 185.15625 26.351562 185.273438 26.398438 185.378906 26.503906 C 185.484375 26.605469 185.53125 26.714844 185.53125 26.84375 L 185.53125 28.4375 C 185.53125 28.742188 185.480469 28.96875 185.378906 29.09375 C 185.257812 29.242188 185.113281 29.375 184.953125 29.488281 C 184.492188 29.792969 183.992188 30.019531 183.46875 30.160156 C 182.941406 30.296875 182.355469 30.371094 181.722656 30.371094 Z M 181.722656 30.371094 "/>
<path style=" stroke:none;fill-rule:evenodd;fill:rgb(17.647059%,20.392157%,28.235294%);fill-opacity:1;" d="M 221.859375 30.371094 C 221.65625 30.371094 221.429688 30.359375 221.183594 30.339844 C 220.941406 30.320312 220.71875 30.285156 220.523438 30.234375 C 220.371094 30.195312 220.253906 30.128906 220.167969 30.03125 C 220.09375 29.945312 220.0625 29.855469 220.066406 29.75 L 220.179688 27.511719 C 220.179688 27.351562 220.222656 27.242188 220.324219 27.148438 C 220.429688 27.054688 220.550781 27.007812 220.703125 27.007812 L 221.15625 27.007812 C 221.289062 27.007812 221.394531 27.050781 221.480469 27.144531 C 221.589844 27.257812 221.660156 27.394531 221.703125 27.554688 L 222.125 29.195312 L 223.03125 27.261719 L 220.015625 20.988281 L 219.371094 20.988281 C 219.246094 20.988281 219.136719 20.9375 219.03125 20.835938 C 218.929688 20.730469 218.878906 20.617188 218.878906 20.476562 L 218.878906 19.710938 C 218.878906 19.566406 218.929688 19.441406 219.03125 19.339844 C 219.136719 19.238281 219.246094 19.1875 219.371094 19.1875 L 223.15625 19.1875 C 223.304688 19.1875 223.414062 19.234375 223.507812 19.335938 C 223.601562 19.4375 223.648438 19.5625 223.648438 19.710938 L 223.648438 20.476562 C 223.648438 20.621094 223.605469 20.734375 223.507812 20.839844 C 223.414062 20.941406 223.304688 20.988281 223.15625 20.988281 L 222.578125 20.988281 L 224.320312 25.015625 L 226.21875 20.988281 L 225.40625 20.988281 C 225.28125 20.988281 225.171875 20.9375 225.066406 20.835938 C 224.964844 20.730469 224.914062 20.617188 224.914062 20.476562 L 224.914062 19.710938 C 224.914062 19.5625 224.964844 19.441406 225.066406 19.339844 C 225.171875 19.238281 225.28125 19.1875 225.40625 19.1875 L 229.066406 19.1875 C 229.214844 19.1875 229.324219 19.234375 229.417969 19.335938 C 229.515625 19.4375 229.5625 19.5625 229.5625 19.710938 L 229.5625 20.476562 C 229.5625 20.621094 229.515625 20.734375 229.417969 20.839844 C 229.324219 20.941406 229.214844 20.988281 229.066406 20.988281 L 228.585938 20.988281 L 224.925781 28.242188 C 224.695312 28.679688 224.460938 29.042969 224.21875 29.324219 C 223.984375 29.59375 223.738281 29.8125 223.484375 29.964844 C 223.230469 30.117188 222.972656 30.222656 222.710938 30.28125 C 222.441406 30.339844 222.15625 30.371094 221.859375 30.371094 Z M 195.449219 29.996094 C 195.554688 30.101562 195.664062 30.152344 195.789062 30.152344 L 199.886719 30.152344 C 200.015625 30.152344 200.125 30.101562 200.226562 30 C 200.332031 29.894531 200.382812 29.78125 200.382812 29.640625 L 200.382812 28.875 C 200.382812 28.726562 200.332031 28.605469 200.230469 28.503906 C 200.125 28.398438 200.015625 28.351562 199.886719 28.351562 L 198.972656 28.351562 L 198.972656 20.988281 L 201.042969 20.988281 L 201.207031 22.285156 C 201.222656 22.433594 201.28125 22.5625 201.382812 22.671875 C 201.476562 22.769531 201.578125 22.816406 201.703125 22.816406 L 202.84375 22.816406 C 202.972656 22.816406 203.078125 22.769531 203.183594 22.664062 C 203.289062 22.5625 203.335938 22.441406 203.335938 22.292969 L 203.335938 19.695312 C 203.335938 19.558594 203.289062 19.445312 203.183594 19.339844 C 203.082031 19.238281 202.96875 19.1875 202.84375 19.1875 L 195.773438 19.1875 C 195.648438 19.1875 195.539062 19.238281 195.433594 19.339844 C 195.332031 19.441406 195.28125 19.566406 195.28125 19.710938 L 195.28125 20.476562 C 195.28125 20.617188 195.332031 20.730469 195.433594 20.835938 C 195.539062 20.9375 195.648438 20.988281 195.773438 20.988281 L 196.457031 20.988281 L 196.457031 28.351562 L 195.789062 28.351562 C 195.664062 28.351562 195.554688 28.398438 195.449219 28.503906 C 195.347656 28.605469 195.296875 28.726562 195.296875 28.875 L 195.296875 29.640625 C 195.296875 29.78125 195.347656 29.894531 195.449219 29.996094 Z M 207.023438 29.996094 C 207.128906 30.101562 207.234375 30.152344 207.363281 30.152344 L 211.398438 30.152344 C 211.542969 30.152344 211.65625 30.105469 211.746094 30.003906 C 211.84375 29.898438 211.890625 29.785156 211.890625 29.640625 L 211.890625 28.875 C 211.890625 28.722656 211.84375 28.601562 211.746094 28.5 C 211.65625 28.398438 211.542969 28.351562 211.398438 28.351562 L 210.546875 28.351562 L 210.546875 25.960938 L 212.164062 25.960938 C 213.320312 25.960938 214.242188 25.667969 214.898438 25.09375 C 215.550781 24.527344 215.878906 23.671875 215.878906 22.558594 C 215.878906 22.207031 215.835938 21.828125 215.757812 21.429688 C 215.679688 21.050781 215.511719 20.6875 215.253906 20.359375 C 214.996094 20.03125 214.609375 19.75 214.105469 19.527344 C 213.59375 19.300781 212.890625 19.1875 212.007812 19.1875 L 207.363281 19.1875 C 207.234375 19.1875 207.128906 19.238281 207.023438 19.339844 C 206.921875 19.441406 206.871094 19.566406 206.871094 19.710938 L 206.871094 20.476562 C 206.871094 20.617188 206.917969 20.730469 207.023438 20.835938 C 207.128906 20.9375 207.234375 20.988281 207.363281 20.988281 L 208.042969 20.988281 L 208.042969 28.351562 L 207.363281 28.351562 C 207.234375 28.351562 207.128906 28.398438 207.023438 28.503906 C 206.921875 28.605469 206.871094 28.726562 206.871094 28.875 L 206.871094 29.640625 C 206.871094 29.78125 206.917969 29.894531 207.023438 29.996094 Z M 238.964844 30.152344 C 238.839844 30.152344 238.730469 30.101562 238.625 30 C 238.523438 29.894531 238.472656 29.78125 238.472656 29.640625 L 238.472656 28.875 C 238.472656 28.726562 238.523438 28.605469 238.625 28.503906 C 238.730469 28.398438 238.839844 28.351562 238.964844 28.351562 L 239.554688 28.351562 L 239.554688 20.988281 L 236.113281 20.988281 L 236.113281 28.351562 L 236.589844 28.351562 C 236.734375 28.351562 236.847656 28.398438 236.941406 28.5 C 237.035156 28.601562 237.082031 28.726562 237.082031 28.875 L 237.082031 29.640625 C 237.082031 29.785156 237.039062 29.898438 236.941406 30.003906 C 236.847656 30.105469 236.734375 30.152344 236.589844 30.152344 L 232.882812 30.152344 C 232.757812 30.152344 232.648438 30.101562 232.542969 29.996094 C 232.4375 29.894531 232.390625 29.78125 232.390625 29.640625 L 232.390625 28.875 C 232.390625 28.726562 232.441406 28.605469 232.542969 28.503906 C 232.648438 28.398438 232.757812 28.351562 232.882812 28.351562 L 233.59375 28.351562 L 233.59375 20.988281 L 232.945312 20.988281 C 232.820312 20.988281 232.710938 20.9375 232.605469 20.835938 C 232.5 20.730469 232.453125 20.617188 232.453125 20.476562 L 232.453125 19.710938 C 232.453125 19.566406 232.503906 19.441406 232.605469 19.339844 C 232.710938 19.238281 232.820312 19.1875 232.945312 19.1875 L 242.609375 19.1875 C 242.757812 19.1875 242.867188 19.234375 242.960938 19.335938 C 243.058594 19.4375 243.101562 19.5625 243.101562 19.710938 L 243.101562 20.476562 C 243.101562 20.621094 243.058594 20.734375 242.960938 20.839844 C 242.867188 20.941406 242.757812 20.988281 242.609375 20.988281 L 242.070312 20.988281 L 242.070312 28.351562 L 242.65625 28.351562 C 242.804688 28.351562 242.914062 28.398438 243.007812 28.5 C 243.105469 28.601562 243.148438 28.726562 243.148438 28.875 L 243.148438 29.640625 C 243.148438 29.785156 243.105469 29.898438 243.007812 30.003906 C 242.914062 30.105469 242.804688 30.152344 242.65625 30.152344 Z M 252.464844 29.996094 C 252.566406 30.101562 252.679688 30.152344 252.804688 30.152344 L 256.496094 30.152344 C 256.640625 30.152344 256.753906 30.105469 256.84375 30.003906 C 256.941406 29.898438 256.988281 29.785156 256.988281 29.640625 L 256.988281 28.875 C 256.988281 28.726562 256.941406 28.601562 256.84375 28.496094 C 256.753906 28.398438 256.640625 28.351562 256.496094 28.351562 L 255.910156 28.351562 L 255.910156 20.988281 L 256.449219 20.988281 C 256.59375 20.988281 256.707031 20.941406 256.796875 20.839844 C 256.894531 20.734375 256.941406 20.621094 256.941406 20.476562 L 256.941406 19.710938 C 256.941406 19.5625 256.894531 19.4375 256.800781 19.335938 C 256.707031 19.234375 256.59375 19.1875 256.449219 19.1875 L 246.785156 19.1875 C 246.660156 19.1875 246.546875 19.238281 246.445312 19.339844 C 246.34375 19.441406 246.292969 19.566406 246.292969 19.710938 L 246.292969 20.476562 C 246.292969 20.617188 246.339844 20.730469 246.445312 20.835938 C 246.546875 20.9375 246.660156 20.988281 246.785156 20.988281 L 247.433594 20.988281 L 247.433594 28.351562 L 246.722656 28.351562 C 246.597656 28.351562 246.484375 28.402344 246.382812 28.503906 C 246.277344 28.605469 246.226562 28.726562 246.226562 28.875 L 246.226562 29.640625 C 246.226562 29.78125 246.277344 29.894531 246.382812 29.996094 C 246.484375 30.101562 246.597656 30.152344 246.722656 30.152344 L 250.429688 30.152344 C 250.574219 30.152344 250.683594 30.105469 250.777344 30.003906 C 250.875 29.898438 250.921875 29.785156 250.921875 29.640625 L 250.921875 28.875 C 250.921875 28.722656 250.875 28.601562 250.777344 28.496094 C 250.683594 28.398438 250.574219 28.351562 250.429688 28.351562 L 249.953125 28.351562 L 249.953125 20.988281 L 253.390625 20.988281 L 253.390625 28.351562 L 252.804688 28.351562 C 252.679688 28.351562 252.566406 28.402344 252.464844 28.503906 C 252.363281 28.605469 252.3125 28.726562 252.3125 28.875 L 252.3125 29.640625 C 252.3125 29.78125 252.359375 29.894531 252.464844 29.996094 Z M 210.550781 24.199219 L 211.980469 24.199219 C 212.238281 24.199219 212.460938 24.148438 212.644531 24.046875 C 212.832031 23.945312 212.976562 23.804688 213.082031 23.628906 C 213.175781 23.464844 213.246094 23.285156 213.289062 23.089844 C 213.328125 22.902344 213.347656 22.707031 213.347656 22.503906 C 213.347656 22.300781 213.328125 22.105469 213.289062 21.925781 C 213.246094 21.722656 213.15625 21.542969 213.03125 21.386719 C 212.90625 21.226562 212.730469 21.101562 212.511719 21.011719 C 212.296875 20.925781 212.035156 20.886719 211.714844 20.886719 L 210.550781 20.886719 Z M 210.550781 24.199219 "/>
<path style=" stroke:none;fill-rule:nonzero;fill:rgb(93.333333%,20%,21.960784%);fill-opacity:1;" d="M 49.929688 17.773438 C 49.234375 18.675781 48.816406 19.691406 48.652344 20.867188 C 48.601562 21.246094 48.574219 21.640625 48.574219 22.054688 C 48.574219 23.09375 47.730469 23.9375 46.695312 23.9375 C 45.660156 23.9375 44.816406 23.09375 44.816406 22.054688 C 44.816406 21.871094 44.824219 21.6875 44.84375 21.507812 C 44.960938 20.277344 45.476562 19.257812 46.324219 18.601562 C 47.070312 18.027344 48.050781 17.738281 49.1875 17.738281 C 49.429688 17.738281 49.679688 17.75 49.929688 17.773438 Z M 49.929688 17.773438 "/>
<path style=" stroke:none;fill-rule:nonzero;fill:rgb(100%,93.333333%,80.784314%);fill-opacity:1;" d="M 39.316406 34.929688 C 39.03125 35.683594 38.8125 36.261719 38.925781 36.773438 C 38.949219 36.867188 38.980469 36.957031 39.023438 37.046875 C 39.53125 38.058594 39.769531 39.214844 39.769531 43.035156 C 39.769531 44.734375 38.582031 45.339844 37.46875 45.339844 L 33.878906 45.339844 C 32.996094 45.339844 32.332031 44.675781 32.332031 43.792969 C 32.332031 43.1875 32.332031 42.363281 32.839844 41.578125 C 33.035156 41.269531 33.3125 40.96875 33.6875 40.691406 C 33.957031 40.492188 34.066406 40.144531 33.960938 39.832031 C 33.859375 39.515625 33.566406 39.304688 33.230469 39.304688 C 31.335938 39.304688 29.492188 37.1875 29.117188 34.582031 C 29.058594 34.160156 28.667969 33.867188 28.25 33.929688 C 27.828125 33.988281 27.539062 34.378906 27.597656 34.796875 C 27.621094 34.964844 27.652344 35.128906 27.683594 35.292969 C 27.78125 35.769531 27.917969 36.226562 28.089844 36.664062 C 25.988281 36.75 24.160156 36.207031 22.523438 35.011719 C 22.292969 34.84375 21.980469 34.820312 21.722656 34.949219 C 21.464844 35.078125 21.300781 35.34375 21.300781 35.632812 L 21.300781 43.792969 C 21.300781 44.648438 20.609375 45.339844 19.753906 45.339844 L 16.496094 45.339844 C 15.722656 45.339844 15.078125 44.765625 14.96875 44.019531 C 14.964844 43.992188 14.960938 43.960938 14.957031 43.933594 C 14.953125 43.886719 14.949219 43.839844 14.949219 43.792969 C 14.949219 42.925781 15.164062 42.296875 15.582031 41.921875 C 15.910156 41.628906 16.382812 41.457031 16.996094 41.402344 C 17.417969 41.363281 17.730469 40.992188 17.691406 40.566406 C 17.691406 40.566406 17.691406 40.5625 17.6875 40.558594 C 17.652344 40.191406 17.359375 39.910156 17.003906 39.871094 C 16.957031 39.867188 16.90625 39.867188 16.859375 39.871094 C 16.4375 39.910156 16.050781 39.992188 15.699219 40.117188 L 15.699219 33.40625 C 16.128906 33.488281 16.5625 33.550781 17.003906 33.59375 C 17.585938 33.660156 18.175781 33.691406 18.777344 33.691406 L 18.785156 33.691406 C 22.292969 33.6875 25.589844 32.652344 28.460938 30.832031 C 31.328125 29.011719 33.765625 26.410156 35.550781 23.28125 C 37.785156 23.484375 39.261719 25.238281 39.863281 27.144531 C 39.933594 27.367188 39.992188 27.589844 40.039062 27.8125 C 40.222656 28.691406 40.296875 29.492188 40.300781 30.222656 L 40.0625 32.542969 C 39.859375 33.5 39.5625 34.285156 39.316406 34.929688 Z M 39.316406 34.929688 "/>
<path style=" stroke:none;fill-rule:nonzero;fill:rgb(100%,100%,100%);fill-opacity:1;" d="M 39.863281 27.144531 C 38.375 25.277344 36.285156 25.734375 33.46875 28.6875 C 30.046875 32.273438 25.476562 34.382812 20.597656 34.382812 C 18.890625 34.382812 17.242188 34.117188 15.699219 33.621094 L 15.699219 33.40625 C 16.699219 33.59375 17.726562 33.691406 18.773438 33.691406 L 18.785156 33.691406 C 22.292969 33.6875 25.589844 32.652344 28.460938 30.832031 C 31.328125 29.011719 33.765625 26.410156 35.550781 23.28125 C 37.78125 23.484375 39.257812 25.238281 39.863281 27.144531 Z M 39.863281 27.144531 "/>
<path style=" stroke:none;fill-rule:nonzero;fill:rgb(93.333333%,20%,21.960784%);fill-opacity:1;" d="M 11.9375 41.648438 C 11.9375 44.730469 9.4375 47.230469 6.355469 47.230469 C 3.269531 47.230469 0.769531 44.730469 0.769531 41.648438 C 0.769531 40.664062 1.023438 39.734375 1.472656 38.933594 C 2.425781 37.21875 4.253906 36.0625 6.355469 36.0625 C 8.601562 36.0625 10.542969 37.390625 11.425781 39.308594 C 11.753906 40.019531 11.9375 40.8125 11.9375 41.648438 Z M 11.9375 41.648438 "/>
<path style=" stroke:none;fill-rule:nonzero;fill:rgb(100%,76.470588%,17.647059%);fill-opacity:1;" d="M 6.488281 43.152344 C 4.453125 43.152344 2.695312 41.957031 1.882812 40.226562 C 1.8125 40.515625 1.773438 40.816406 1.773438 41.128906 C 1.773438 43.277344 3.515625 45.019531 5.664062 45.019531 C 7.429688 45.019531 8.914062 43.847656 9.394531 42.238281 C 8.570312 42.8125 7.570312 43.152344 6.488281 43.152344 Z M 6.488281 43.152344 "/>
<path style=" stroke:none;fill-rule:nonzero;fill:rgb(100%,100%,100%);fill-opacity:1;" d="M 2.035156 43.046875 C 2.035156 39.964844 4.535156 37.460938 7.621094 37.460938 C 8.921875 37.460938 10.117188 37.910156 11.066406 38.65625 C 10.078125 37.097656 8.335938 36.0625 6.351562 36.0625 C 3.269531 36.0625 0.765625 38.5625 0.765625 41.648438 C 0.765625 43.429688 1.605469 45.015625 2.90625 46.039062 C 2.355469 45.171875 2.035156 44.148438 2.035156 43.046875 Z M 2.035156 43.046875 "/>
<path style=" stroke:none;fill-rule:nonzero;fill:rgb(17.647059%,20.392157%,28.235294%);fill-opacity:1;" d="M 6.351562 48 C 2.847656 48 0 45.152344 0 41.648438 C 0 39.898438 0.734375 38.207031 2.011719 37.011719 C 2.320312 36.71875 2.808594 36.734375 3.097656 37.046875 C 3.386719 37.355469 3.371094 37.839844 3.0625 38.128906 C 2.078125 39.050781 1.535156 40.300781 1.535156 41.648438 C 1.535156 44.304688 3.695312 46.464844 6.351562 46.464844 C 9.007812 46.464844 11.167969 44.304688 11.167969 41.648438 C 11.167969 40.453125 10.726562 39.304688 9.925781 38.417969 C 9.644531 38.105469 9.667969 37.617188 9.980469 37.332031 C 10.296875 37.050781 10.785156 37.074219 11.066406 37.390625 C 12.125 38.558594 12.703125 40.070312 12.703125 41.648438 C 12.703125 45.152344 9.855469 48 6.351562 48 Z M 6.351562 48 "/>
<path style=" stroke:none;fill-rule:nonzero;fill:rgb(100%,100%,100%);fill-opacity:1;" d="M 3.933594 42.25 C 3.933594 42.589844 3.65625 42.867188 3.316406 42.867188 C 2.976562 42.867188 2.699219 42.589844 2.699219 42.25 C 2.699219 41.910156 2.976562 41.636719 3.316406 41.636719 C 3.65625 41.636719 3.933594 41.910156 3.933594 42.25 Z M 3.933594 42.25 "/>
<path style=" stroke:none;fill-rule:nonzero;fill:rgb(100%,100%,100%);fill-opacity:1;" d="M 17 33.597656 L 17 39.871094 C 16.957031 39.867188 16.90625 39.867188 16.855469 39.871094 C 16.4375 39.910156 16.050781 39.992188 15.699219 40.117188 L 15.699219 33.410156 C 16.128906 33.488281 16.5625 33.550781 17 33.597656 Z M 17 33.597656 "/>
<path style=" stroke:none;fill-rule:nonzero;fill:rgb(96.078431%,82.745098%,58.039216%);fill-opacity:1;" d="M 14.164062 33.046875 L 14.164062 34.714844 C 12.875 34.8125 11.636719 35.691406 10.953125 36.269531 C 10.84375 36.363281 10.695312 36.492188 10.539062 36.644531 C 10.507812 36.59375 10.480469 36.546875 10.449219 36.503906 C 10.242188 36.21875 9.972656 35.976562 9.65625 35.832031 C 9.582031 35.800781 9.503906 35.785156 9.421875 35.800781 C 9.402344 35.804688 9.386719 35.808594 9.371094 35.8125 C 9.214844 35.859375 9.105469 35.992188 9.082031 36.140625 C 9.078125 36.15625 9.078125 36.175781 9.078125 36.191406 C 9.078125 36.230469 9.082031 36.277344 9.09375 36.320312 L 9.109375 36.375 C 9.117188 36.394531 9.121094 36.414062 9.128906 36.433594 C 9.195312 36.667969 9.253906 36.871094 9.296875 37.078125 C 9.339844 37.296875 9.375 37.511719 9.394531 37.722656 C 9.402344 37.828125 9.410156 37.921875 9.40625 38.003906 C 9.402344 38.117188 9.394531 38.230469 9.378906 38.339844 C 9.347656 38.558594 9.292969 38.777344 9.210938 38.984375 C 8.894531 39.816406 8.175781 40.472656 7.332031 40.710938 C 6.914062 40.832031 6.472656 40.859375 6.035156 40.789062 C 5.597656 40.714844 5.167969 40.550781 4.789062 40.304688 C 4.65625 40.21875 4.527344 40.125 4.40625 40.019531 C 4.234375 39.871094 4.074219 39.703125 3.941406 39.523438 C 3.640625 39.125 3.449219 38.671875 3.40625 38.207031 C 3.402344 38.15625 3.398438 38.105469 3.398438 38.054688 L 3.394531 37.976562 L 3.398438 37.886719 C 3.40625 37.765625 3.402344 37.640625 3.417969 37.519531 C 3.429688 37.398438 3.4375 37.277344 3.457031 37.15625 L 3.523438 36.792969 C 3.621094 36.308594 3.789062 35.835938 3.996094 35.375 C 4.417969 34.457031 5.035156 33.605469 5.757812 32.859375 C 6.484375 32.109375 7.324219 31.460938 8.234375 30.957031 C 8.492188 30.8125 8.753906 30.6875 9.019531 30.570312 C 9.40625 30.847656 9.804688 31.105469 10.214844 31.351562 C 11.441406 32.074219 12.765625 32.648438 14.164062 33.046875 Z M 14.164062 33.046875 "/>
<path style=" stroke:none;fill-rule:nonzero;fill:rgb(100%,100%,100%);fill-opacity:1;" d="M 3.941406 39.523438 C 3.640625 39.125 3.449219 38.671875 3.40625 38.207031 C 3.40625 38.15625 3.398438 38.105469 3.398438 38.054688 L 3.398438 37.882812 C 3.40625 37.765625 3.402344 37.640625 3.417969 37.519531 C 3.429688 37.398438 3.4375 37.277344 3.457031 37.15625 L 3.523438 36.792969 C 3.625 36.308594 3.789062 35.835938 3.996094 35.375 C 4.417969 34.457031 5.035156 33.609375 5.761719 32.859375 C 6.484375 32.109375 7.328125 31.460938 8.234375 30.957031 C 8.492188 30.816406 8.753906 30.6875 9.019531 30.570312 C 9.40625 30.847656 9.808594 31.109375 10.214844 31.351562 C 6.726562 32.277344 3.507812 36.765625 3.941406 39.523438 Z M 3.941406 39.523438 "/>
<path style=" stroke:none;fill-rule:nonzero;fill:rgb(88.627451%,52.156863%,21.176471%);fill-opacity:1;" d="M 31.792969 43.933594 C 31.300781 44.535156 30.59375 45.113281 29.914062 45.113281 L 27.742188 45.113281 C 26.464844 45.113281 25.429688 44.078125 25.429688 42.800781 C 25.429688 40.460938 26.859375 40.039062 27.398438 39.691406 C 26.789062 38.871094 26.101562 38.371094 25.664062 37.65625 L 25.667969 37.65625 C 26.671875 37.707031 27.910156 37.652344 29.507812 37.480469 C 30.449219 39.105469 31.941406 40.167969 33.460938 40.167969 C 31.804688 41.394531 31.789062 42.953125 31.789062 43.886719 C 31.789062 43.90625 31.789062 43.917969 31.792969 43.933594 Z M 31.792969 43.933594 "/>
<path style=" stroke:none;fill-rule:nonzero;fill:rgb(100%,100%,100%);fill-opacity:1;" d="M 17.703125 40.558594 C 17.703125 41.59375 17.324219 42.359375 16.496094 42.359375 C 15.324219 42.359375 14.96875 43.625 14.96875 43.976562 C 14.96875 43.992188 14.964844 44.007812 14.964844 44.019531 C 14.957031 43.945312 14.949219 43.867188 14.949219 43.792969 C 14.949219 42.929688 15.164062 42.296875 15.582031 41.921875 C 15.90625 41.632812 16.382812 41.457031 16.996094 41.402344 C 17.417969 41.363281 17.730469 40.992188 17.691406 40.570312 C 17.691406 40.566406 17.691406 40.5625 17.6875 40.558594 Z M 17.703125 40.558594 "/>
<path style=" stroke:none;fill-rule:nonzero;fill:rgb(88.627451%,52.156863%,21.176471%);fill-opacity:1;" d="M 28.089844 36.664062 C 25.988281 36.75 24.15625 36.207031 22.523438 35.011719 C 22.289062 34.84375 21.980469 34.820312 21.722656 34.949219 C 21.464844 35.082031 21.300781 35.34375 21.300781 35.632812 L 21.300781 43.792969 C 21.300781 44.644531 20.609375 45.339844 19.753906 45.339844 L 16.496094 45.339844 C 15.71875 45.339844 15.074219 44.765625 14.964844 44.019531 C 14.960938 43.992188 14.957031 43.960938 14.957031 43.933594 L 14.96875 43.828125 C 15.339844 44.5 16.894531 44.457031 17.769531 44.039062 C 20.445312 42.753906 20.421875 37.113281 20.421875 37.113281 L 20.421875 36.457031 C 20.421875 35.546875 21.160156 34.808594 22.070312 34.808594 C 22.070312 34.808594 22.359375 34.890625 22.699219 34.984375 C 23.035156 35.074219 23.421875 35.171875 23.605469 35.207031 C 25.320312 35.503906 26.601562 35.777344 27.683594 35.292969 C 27.78125 35.769531 27.917969 36.226562 28.089844 36.664062 Z M 28.089844 36.664062 "/>
<path style=" stroke:none;fill-rule:nonzero;fill:rgb(100%,76.470588%,17.647059%);fill-opacity:1;" d="M 14.164062 33.082031 L 14.164062 34.714844 C 12.875 34.8125 11.636719 35.691406 10.953125 36.269531 C 10.84375 36.363281 10.695312 36.492188 10.539062 36.644531 C 10.507812 36.59375 10.480469 36.546875 10.449219 36.503906 C 10.242188 36.21875 9.972656 35.976562 9.65625 35.832031 C 9.582031 35.800781 9.503906 35.785156 9.425781 35.800781 C 10.171875 34.429688 12.699219 33.445312 14.164062 33.082031 Z M 14.164062 33.082031 "/>
<path style=" stroke:none;fill-rule:nonzero;fill:rgb(88.627451%,52.156863%,21.176471%);fill-opacity:1;" d="M 39.769531 43.035156 C 39.769531 44.734375 38.582031 45.339844 37.46875 45.339844 L 33.878906 45.339844 C 32.996094 45.339844 32.328125 44.675781 32.328125 43.792969 C 32.328125 43.1875 32.328125 42.363281 32.839844 41.578125 C 33.992188 44.34375 39.195312 43.109375 38.925781 36.773438 C 38.945312 36.867188 38.980469 36.957031 39.023438 37.046875 C 39.53125 38.058594 39.769531 39.214844 39.769531 43.035156 Z M 39.769531 43.035156 "/>
<path style=" stroke:none;fill-rule:nonzero;fill:rgb(100%,76.470588%,17.647059%);fill-opacity:1;" d="M 9.082031 36.191406 C 9.074219 36.167969 9.070312 36.144531 9.0625 36.121094 L 9.085938 36.140625 C 9.082031 36.15625 9.078125 36.171875 9.082031 36.191406 Z M 9.082031 36.191406 "/>
<path style=" stroke:none;fill-rule:nonzero;fill:rgb(100%,76.470588%,17.647059%);fill-opacity:1;" d="M 9.40625 38.003906 C 9.402344 38.117188 9.394531 38.230469 9.378906 38.339844 C 9.347656 38.558594 9.292969 38.777344 9.214844 38.984375 C 8.898438 39.8125 8.175781 40.472656 7.335938 40.714844 C 6.914062 40.832031 6.472656 40.859375 6.035156 40.789062 C 5.597656 40.714844 5.167969 40.550781 4.789062 40.304688 C 4.65625 40.21875 4.527344 40.125 4.40625 40.019531 L 4.539062 39.488281 C 5.691406 40.816406 9.53125 39.058594 9.132812 36.433594 C 9.199219 36.667969 9.253906 36.871094 9.296875 37.078125 C 9.339844 37.296875 9.375 37.511719 9.394531 37.722656 C 9.402344 37.828125 9.410156 37.921875 9.40625 38.003906 Z M 9.40625 38.003906 "/>
<path style=" stroke:none;fill-rule:nonzero;fill:rgb(17.647059%,20.392157%,28.235294%);fill-opacity:1;" d="M 7.445312 41.402344 C 7.257812 41.164062 7.144531 40.917969 7.070312 40.667969 C 7 40.421875 6.96875 40.175781 6.964844 39.933594 C 6.960938 39.449219 7.078125 38.996094 7.246094 38.585938 C 7.308594 38.441406 7.480469 38.371094 7.625 38.429688 C 7.75 38.484375 7.820312 38.617188 7.800781 38.746094 L 7.796875 38.757812 C 7.738281 39.128906 7.738281 39.503906 7.824219 39.839844 C 7.867188 40.007812 7.929688 40.164062 8.007812 40.296875 C 8.085938 40.429688 8.183594 40.539062 8.277344 40.601562 C 8.542969 40.785156 8.609375 41.152344 8.421875 41.417969 C 8.238281 41.683594 7.875 41.75 7.609375 41.566406 C 7.5625 41.53125 7.519531 41.492188 7.484375 41.453125 Z M 7.445312 41.402344 "/>
<path style=" stroke:none;fill-rule:nonzero;fill:rgb(17.647059%,20.392157%,28.235294%);fill-opacity:1;" d="M 4.734375 41.636719 C 4.6875 41.582031 4.640625 41.519531 4.601562 41.457031 C 4.566406 41.402344 4.550781 41.355469 4.527344 41.304688 C 4.5 41.25 4.488281 41.207031 4.476562 41.164062 L 4.445312 41.035156 C 4.417969 40.875 4.40625 40.722656 4.40625 40.582031 C 4.402344 40.296875 4.433594 40.03125 4.476562 39.769531 C 4.523438 39.507812 4.585938 39.25 4.671875 38.996094 C 4.757812 38.746094 4.863281 38.496094 5.023438 38.257812 C 5.113281 38.125 5.292969 38.089844 5.425781 38.179688 C 5.542969 38.257812 5.582031 38.402344 5.53125 38.527344 L 5.527344 38.539062 C 5.449219 38.726562 5.402344 38.945312 5.371094 39.167969 C 5.34375 39.390625 5.332031 39.617188 5.339844 39.839844 C 5.34375 40.0625 5.367188 40.285156 5.410156 40.488281 C 5.429688 40.589844 5.460938 40.679688 5.488281 40.753906 L 5.515625 40.796875 C 5.519531 40.816406 5.527344 40.828125 5.535156 40.828125 C 5.539062 40.828125 5.546875 40.84375 5.546875 40.832031 C 5.542969 40.820312 5.535156 40.808594 5.523438 40.796875 C 5.757812 41.015625 5.765625 41.382812 5.550781 41.613281 C 5.332031 41.84375 4.964844 41.855469 4.734375 41.636719 Z M 4.734375 41.636719 "/>
<path style=" stroke:none;fill-rule:nonzero;fill:rgb(17.647059%,20.392157%,28.235294%);fill-opacity:1;" d="M 15.421875 45.808594 C 15.34375 45.363281 15.351562 44.902344 15.453125 44.472656 C 15.554688 44.039062 15.75 43.640625 16.011719 43.308594 C 16.109375 43.183594 16.292969 43.160156 16.417969 43.257812 C 16.523438 43.34375 16.558594 43.484375 16.503906 43.601562 L 16.503906 43.609375 C 16.222656 44.238281 16.265625 44.929688 16.527344 45.496094 C 16.664062 45.785156 16.539062 46.132812 16.25 46.269531 C 15.957031 46.40625 15.609375 46.28125 15.472656 45.988281 C 15.453125 45.941406 15.433594 45.894531 15.425781 45.84375 Z M 15.421875 45.808594 "/>
<path style=" stroke:none;fill-rule:nonzero;fill:rgb(17.647059%,20.392157%,28.235294%);fill-opacity:1;" d="M 17.234375 45.808594 C 17.15625 45.363281 17.167969 44.902344 17.269531 44.472656 C 17.371094 44.039062 17.566406 43.640625 17.828125 43.308594 C 17.925781 43.183594 18.109375 43.160156 18.234375 43.257812 C 18.339844 43.34375 18.371094 43.484375 18.320312 43.601562 L 18.316406 43.609375 C 18.039062 44.238281 18.078125 44.929688 18.34375 45.496094 C 18.480469 45.785156 18.355469 46.132812 18.0625 46.269531 C 17.773438 46.40625 17.425781 46.28125 17.289062 45.988281 C 17.265625 45.941406 17.25 45.894531 17.242188 45.84375 Z M 17.234375 45.808594 "/>
<path style=" stroke:none;fill-rule:nonzero;fill:rgb(17.647059%,20.392157%,28.235294%);fill-opacity:1;" d="M 32.554688 45.808594 C 32.480469 45.363281 32.488281 44.902344 32.589844 44.472656 C 32.691406 44.039062 32.886719 43.640625 33.148438 43.308594 C 33.246094 43.183594 33.429688 43.160156 33.554688 43.257812 C 33.660156 43.34375 33.691406 43.484375 33.640625 43.601562 L 33.636719 43.609375 C 33.359375 44.238281 33.402344 44.929688 33.664062 45.496094 C 33.800781 45.785156 33.675781 46.132812 33.382812 46.269531 C 33.09375 46.40625 32.746094 46.28125 32.609375 45.988281 C 32.585938 45.941406 32.570312 45.894531 32.5625 45.84375 Z M 32.554688 45.808594 "/>
<path style=" stroke:none;fill-rule:nonzero;fill:rgb(17.647059%,20.392157%,28.235294%);fill-opacity:1;" d="M 34.574219 45.808594 C 34.496094 45.363281 34.503906 44.902344 34.605469 44.472656 C 34.707031 44.039062 34.902344 43.640625 35.164062 43.308594 C 35.261719 43.183594 35.445312 43.160156 35.570312 43.257812 C 35.675781 43.34375 35.710938 43.484375 35.65625 43.601562 L 35.65625 43.609375 C 35.375 44.238281 35.417969 44.929688 35.679688 45.496094 C 35.816406 45.785156 35.691406 46.132812 35.402344 46.269531 C 35.109375 46.40625 34.761719 46.28125 34.625 45.988281 C 34.601562 45.941406 34.589844 45.894531 34.578125 45.84375 Z M 34.574219 45.808594 "/>
<path style=" stroke:none;fill-rule:nonzero;fill:rgb(17.647059%,20.392157%,28.235294%);fill-opacity:1;" d="M 26.445312 44.898438 C 26.367188 44.453125 26.378906 43.996094 26.480469 43.5625 C 26.578125 43.128906 26.773438 42.730469 27.035156 42.398438 C 27.136719 42.273438 27.316406 42.25 27.441406 42.351562 C 27.550781 42.433594 27.582031 42.578125 27.527344 42.695312 L 27.527344 42.699219 C 27.25 43.332031 27.289062 44.023438 27.554688 44.585938 C 27.691406 44.878906 27.5625 45.222656 27.273438 45.359375 C 26.980469 45.496094 26.632812 45.371094 26.496094 45.082031 C 26.476562 45.03125 26.460938 44.984375 26.449219 44.933594 Z M 26.445312 44.898438 "/>
<path style=" stroke:none;fill-rule:nonzero;fill:rgb(17.647059%,20.392157%,28.235294%);fill-opacity:1;" d="M 28.265625 44.898438 C 28.1875 44.453125 28.195312 43.996094 28.296875 43.5625 C 28.398438 43.128906 28.59375 42.730469 28.855469 42.398438 C 28.957031 42.273438 29.136719 42.25 29.261719 42.351562 C 29.371094 42.433594 29.402344 42.578125 29.347656 42.695312 L 29.347656 42.699219 C 29.070312 43.332031 29.109375 44.023438 29.375 44.585938 C 29.507812 44.878906 29.382812 45.222656 29.09375 45.359375 C 28.800781 45.496094 28.453125 45.371094 28.316406 45.082031 C 28.296875 45.03125 28.28125 44.984375 28.269531 44.933594 Z M 28.265625 44.898438 "/>
<path style=" stroke:none;fill-rule:nonzero;fill:rgb(93.333333%,20%,21.960784%);fill-opacity:1;" d="M 39.148438 6.425781 C 39.148438 7.59375 40.097656 8.542969 41.265625 8.542969 C 42.4375 8.542969 43.386719 7.59375 43.386719 6.425781 C 43.386719 5.085938 43.730469 3.78125 45.078125 2.601562 C 41.457031 1.65625 39.148438 3.492188 39.148438 6.425781 Z M 39.148438 6.425781 "/>
<path style=" stroke:none;fill-rule:nonzero;fill:rgb(100%,76.470588%,17.647059%);fill-opacity:1;" d="M 49.929688 17.773438 C 49.234375 18.675781 48.816406 19.691406 48.652344 20.867188 C 48.496094 20.019531 48.277344 19.066406 48.019531 18.566406 C 46.890625 21.117188 45.863281 21.464844 44.84375 21.507812 C 44.960938 20.277344 45.476562 19.257812 46.324219 18.601562 C 47.070312 18.027344 48.050781 17.738281 49.1875 17.738281 C 49.429688 17.738281 49.675781 17.75 49.929688 17.773438 Z M 49.929688 17.773438 "/>
<path style=" stroke:none;fill-rule:nonzero;fill:rgb(100%,76.470588%,17.647059%);fill-opacity:1;" d="M 38.679688 6.414062 C 40.171875 6.261719 40.320312 4.992188 42.113281 4.007812 C 41.421875 5.570312 43.039062 6.742188 43.039062 6.742188 L 44.402344 3.621094 L 44.015625 2.214844 L 40.78125 2.734375 Z M 38.679688 6.414062 "/>
<path style=" stroke:none;fill-rule:nonzero;fill:rgb(93.333333%,20%,21.960784%);fill-opacity:1;" d="M 38.328125 10.808594 C 38.328125 15.453125 37.089844 19.710938 34.996094 23.226562 C 31.492188 29.125 25.578125 32.921875 19.074219 32.921875 C 10.195312 32.921875 2.996094 25.722656 2.996094 16.84375 C 2.996094 14.757812 3.394531 12.765625 4.117188 10.9375 L 5.058594 9.253906 L 6.183594 7.238281 C 9.113281 3.308594 13.796875 0.769531 19.074219 0.769531 L 38.6875 0.769531 C 34.726562 3.675781 30.179688 12.226562 33.523438 13.828125 C 35.304688 14.675781 37.308594 12.480469 38.328125 10.808594 Z M 38.328125 10.808594 "/>
<path style=" stroke:none;fill-rule:nonzero;fill:rgb(96.078431%,82.745098%,58.039216%);fill-opacity:1;" d="M 28.1875 11.421875 C 27.855469 11.925781 27.316406 12.335938 26.746094 12.515625 C 26.457031 12.601562 26.179688 12.652344 25.875 12.667969 C 25.566406 12.683594 25.238281 12.65625 24.851562 12.621094 L 24.816406 12.617188 C 24.710938 12.609375 24.605469 12.640625 24.519531 12.710938 C 24.375 12.832031 24.335938 13.03125 24.414062 13.195312 C 24.425781 13.230469 24.445312 13.261719 24.46875 13.289062 C 24.769531 13.648438 25.199219 13.902344 25.679688 14.03125 C 25.910156 14.09375 26.148438 14.117188 26.386719 14.113281 C 25.828125 20.386719 23.386719 23.582031 21.378906 25.171875 C 19.703125 26.5 17.996094 26.957031 16.808594 26.957031 L 16.804688 26.957031 C 16.5625 26.957031 16.335938 26.9375 16.136719 26.902344 C 14.46875 26.601562 13.015625 25.9375 11.804688 24.949219 L 11.800781 24.945312 C 9.136719 22.757812 7.640625 18.980469 7.558594 13.984375 C 7.898438 13.871094 8.203125 13.699219 8.453125 13.464844 C 8.511719 13.410156 8.570312 13.351562 8.621094 13.289062 C 8.6875 13.207031 8.722656 13.101562 8.710938 12.988281 C 8.691406 12.765625 8.496094 12.597656 8.269531 12.617188 L 8.238281 12.621094 C 7.847656 12.65625 7.519531 12.683594 7.210938 12.667969 C 6.90625 12.652344 6.632812 12.601562 6.34375 12.515625 C 5.769531 12.335938 5.230469 11.925781 4.898438 11.421875 C 4.605469 10.976562 4.480469 10.488281 4.546875 10.019531 C 4.582031 9.992188 4.625 9.972656 4.671875 9.949219 C 4.816406 9.882812 4.992188 9.839844 5.179688 9.816406 C 5.554688 9.769531 5.976562 9.800781 6.371094 9.90625 C 6.769531 10.007812 7.144531 10.1875 7.457031 10.441406 C 7.769531 10.6875 8.007812 11.015625 8.128906 11.398438 L 8.132812 11.410156 C 8.191406 11.585938 8.375 11.703125 8.566406 11.667969 C 8.777344 11.632812 8.914062 11.433594 8.878906 11.226562 C 8.835938 10.988281 8.761719 10.75 8.65625 10.53125 L 8.65625 10.527344 C 8.519531 10.242188 8.335938 9.972656 8.117188 9.742188 C 7.734375 9.332031 7.257812 9.027344 6.753906 8.816406 C 6.359375 8.65625 5.945312 8.542969 5.511719 8.496094 C 5.546875 8.46875 5.585938 8.4375 5.625 8.410156 C 5.875 8.234375 6.152344 8.09375 6.417969 8.027344 C 6.550781 7.984375 6.671875 7.976562 6.78125 7.96875 L 6.996094 7.980469 C 7.066406 7.992188 7.136719 7.996094 7.207031 8.011719 C 7.753906 8.121094 8.292969 8.46875 8.792969 8.96875 C 9.292969 9.464844 9.753906 10.070312 10.253906 10.710938 C 10.507812 11.03125 10.773438 11.359375 11.109375 11.695312 C 11.28125 11.855469 11.480469 12.019531 11.734375 12.171875 C 11.851562 12.242188 11.992188 12.308594 12.152344 12.355469 C 12.253906 12.410156 12.371094 12.441406 12.496094 12.441406 L 13.019531 12.441406 L 13.019531 14.320312 C 13.019531 14.347656 13.023438 14.371094 13.023438 14.394531 C 13.0625 14.785156 13.390625 15.085938 13.789062 15.085938 C 14.1875 15.085938 14.515625 14.785156 14.550781 14.394531 C 14.554688 14.371094 14.554688 14.347656 14.554688 14.320312 L 14.554688 12.441406 L 15.671875 12.441406 L 15.671875 14.320312 C 15.671875 14.347656 15.671875 14.371094 15.675781 14.394531 C 15.714844 14.785156 16.042969 15.085938 16.441406 15.085938 C 16.839844 15.085938 17.164062 14.785156 17.203125 14.394531 C 17.207031 14.371094 17.207031 14.347656 17.207031 14.320312 L 17.207031 12.441406 L 18.53125 12.441406 L 18.53125 14.320312 C 18.53125 14.347656 18.53125 14.371094 18.535156 14.394531 C 18.574219 14.785156 18.898438 15.085938 19.296875 15.085938 C 19.699219 15.085938 20.023438 14.785156 20.0625 14.394531 C 20.0625 14.371094 20.066406 14.347656 20.066406 14.320312 L 20.066406 12.441406 L 20.386719 12.441406 C 20.765625 12.449219 21.105469 12.316406 21.355469 12.171875 C 21.609375 12.019531 21.804688 11.855469 21.976562 11.695312 C 22.316406 11.359375 22.582031 11.03125 22.835938 10.710938 C 23.335938 10.070312 23.792969 9.464844 24.296875 8.96875 C 24.792969 8.46875 25.332031 8.121094 25.882812 8.011719 C 25.953125 7.996094 26.023438 7.992188 26.09375 7.980469 L 26.304688 7.96875 C 26.417969 7.976562 26.539062 7.984375 26.671875 8.027344 C 26.933594 8.09375 27.214844 8.234375 27.464844 8.410156 C 27.503906 8.4375 27.539062 8.46875 27.578125 8.496094 C 27.140625 8.542969 26.730469 8.65625 26.335938 8.816406 C 25.828125 9.027344 25.355469 9.332031 24.96875 9.742188 C 24.808594 9.910156 24.664062 10.105469 24.546875 10.3125 C 24.382812 10.59375 24.265625 10.90625 24.210938 11.226562 C 24.175781 11.410156 24.285156 11.59375 24.46875 11.65625 C 24.667969 11.722656 24.886719 11.609375 24.953125 11.410156 L 24.957031 11.398438 C 25.082031 11.015625 25.316406 10.6875 25.632812 10.441406 C 25.941406 10.1875 26.320312 10.007812 26.714844 9.90625 C 27.113281 9.800781 27.53125 9.769531 27.910156 9.816406 C 28.097656 9.839844 28.273438 9.882812 28.414062 9.949219 C 28.464844 9.972656 28.503906 9.992188 28.539062 10.019531 C 28.605469 10.488281 28.480469 10.976562 28.1875 11.421875 Z M 28.1875 11.421875 "/>
<path style=" stroke:none;fill-rule:nonzero;fill:rgb(100%,100%,100%);fill-opacity:1;" d="M 15.085938 24.667969 C 15.328125 25.050781 15.675781 25.578125 16.839844 25.578125 C 17.800781 25.578125 19.160156 25.25 19.652344 24.097656 C 20.074219 23.101562 18.917969 23.433594 18.789062 23.621094 C 18.527344 24 17.984375 24.589844 17.984375 24.589844 L 16.117188 24.601562 Z M 15.085938 24.667969 "/>
<path style=" stroke:none;fill-rule:nonzero;fill:rgb(100%,100%,100%);fill-opacity:1;" d="M 16.441406 19.335938 C 15.546875 19.335938 14.089844 20.632812 14.089844 21.28125 C 14.089844 21.683594 15.148438 21.742188 16.441406 21.742188 C 17.730469 21.742188 18.789062 21.683594 18.789062 21.28125 C 18.789062 20.632812 17.332031 19.335938 16.441406 19.335938 Z M 16.441406 19.335938 "/>
<path style=" stroke:none;fill-rule:nonzero;fill:rgb(100%,76.470588%,17.647059%);fill-opacity:1;" d="M 26.386719 14.113281 C 25.828125 20.386719 23.382812 23.582031 21.375 25.171875 C 19.699219 26.503906 17.996094 26.957031 16.808594 26.957031 C 22.871094 24.816406 25.070312 17.675781 24.410156 13.195312 C 24.425781 13.230469 24.445312 13.261719 24.46875 13.289062 C 24.769531 13.648438 25.199219 13.902344 25.679688 14.03125 C 25.910156 14.09375 26.148438 14.117188 26.386719 14.113281 Z M 26.386719 14.113281 "/>
<path style=" stroke:none;fill-rule:nonzero;fill:rgb(100%,100%,100%);fill-opacity:1;" d="M 11.800781 24.945312 C 9.136719 22.757812 7.640625 18.976562 7.558594 13.984375 C 7.894531 13.871094 8.203125 13.699219 8.453125 13.460938 C 8.597656 16.4375 9.058594 21.574219 11.800781 24.945312 Z M 11.800781 24.945312 "/>
<path style=" stroke:none;fill-rule:nonzero;fill:rgb(17.647059%,20.392157%,28.235294%);fill-opacity:1;" d="M 43.261719 3.121094 C 42.386719 3.121094 41.632812 3.34375 41.066406 3.78125 C 40.324219 4.355469 39.917969 5.292969 39.917969 6.425781 C 39.917969 7.167969 40.523438 7.777344 41.269531 7.777344 C 42.011719 7.777344 42.617188 7.167969 42.617188 6.425781 C 42.617188 5.136719 42.925781 4.0625 43.570312 3.128906 C 43.46875 3.125 43.363281 3.121094 43.261719 3.121094 Z M 41.269531 9.3125 C 39.675781 9.3125 38.382812 8.015625 38.382812 6.425781 C 38.382812 4.804688 39 3.4375 40.128906 2.566406 C 41.410156 1.578125 43.234375 1.324219 45.273438 1.859375 C 45.546875 1.929688 45.757812 2.148438 45.824219 2.421875 C 45.890625 2.699219 45.796875 2.988281 45.585938 3.175781 C 44.582031 4.058594 44.15625 5.03125 44.15625 6.425781 C 44.15625 8.015625 42.859375 9.3125 41.269531 9.3125 Z M 41.269531 9.3125 "/>
<path style=" stroke:none;fill-rule:nonzero;fill:rgb(17.647059%,20.392157%,28.235294%);fill-opacity:1;" d="M 39.121094 0.527344 C 39.015625 0.210938 38.722656 0 38.390625 0 L 18.773438 0 C 18.773438 0 18.769531 0 18.765625 0 C 13.402344 0.00390625 8.480469 2.472656 5.269531 6.777344 C 5.015625 7.121094 5.085938 7.601562 5.425781 7.851562 C 5.5625 7.957031 5.726562 8.003906 5.882812 8.003906 C 6.117188 8.003906 6.351562 7.898438 6.5 7.695312 C 9.421875 3.78125 13.894531 1.535156 18.773438 1.535156 L 36.367188 1.535156 C 33.605469 4.375 31.035156 9.066406 31.316406 12.054688 C 31.453125 13.53125 32.25 14.210938 32.894531 14.519531 C 34.359375 15.21875 35.894531 14.441406 37.144531 13.1875 C 36.117188 23.84375 28.269531 32.152344 18.773438 32.152344 C 18.773438 32.152344 18.769531 32.15625 18.769531 32.15625 C 10.328125 32.152344 3.464844 25.285156 3.464844 16.84375 C 3.464844 14.902344 3.824219 13.007812 4.535156 11.21875 C 4.691406 10.824219 4.496094 10.378906 4.101562 10.222656 C 3.707031 10.066406 3.261719 10.257812 3.105469 10.652344 C 2.324219 12.625 1.929688 14.707031 1.929688 16.84375 C 1.929688 26.132812 9.488281 33.691406 18.773438 33.691406 C 18.777344 33.691406 18.78125 33.691406 18.785156 33.691406 C 29.820312 33.683594 38.796875 23.417969 38.796875 10.804688 C 38.796875 10.460938 38.566406 10.160156 38.234375 10.066406 C 37.902344 9.972656 37.550781 10.113281 37.371094 10.40625 C 36.507812 11.824219 34.78125 13.71875 33.558594 13.132812 C 33.289062 13.003906 32.921875 12.738281 32.84375 11.910156 C 32.59375 9.234375 35.789062 3.628906 38.84375 1.386719 C 39.113281 1.191406 39.222656 0.84375 39.121094 0.527344 Z M 39.121094 0.527344 "/>
<path style=" stroke:none;fill-rule:nonzero;fill:rgb(100%,76.470588%,17.647059%);fill-opacity:1;" d="M 37.144531 13.1875 C 35.894531 14.441406 34.359375 15.21875 32.894531 14.519531 C 32.25 14.210938 31.453125 13.535156 31.316406 12.054688 C 31.0625 9.351562 33.136719 5.257812 35.582031 2.398438 L 20.707031 2.398438 L 20.707031 2.402344 C 19.34375 2.402344 18.023438 2.570312 16.761719 2.890625 C 14.582031 4.78125 14.003906 6.984375 14.089844 7.988281 C 15.085938 6.023438 19.222656 2.742188 22.253906 3.824219 C 19.742188 5.191406 18.789062 8.71875 16.929688 9.761719 C 19.386719 9.761719 21.007812 9.351562 22.152344 8.863281 C 22.433594 8.492188 22.734375 8.117188 23.085938 7.761719 C 23.398438 7.445312 23.75 7.140625 24.160156 6.882812 C 24.566406 6.625 25.039062 6.417969 25.542969 6.316406 C 25.667969 6.292969 25.796875 6.277344 25.921875 6.261719 C 26.050781 6.25 26.179688 6.246094 26.304688 6.242188 C 26.59375 6.25 26.867188 6.289062 27.117188 6.359375 C 27.621094 6.496094 28.0625 6.726562 28.460938 7.007812 C 28.859375 7.292969 29.207031 7.640625 29.5 8.042969 C 29.785156 8.445312 30.011719 8.910156 30.132812 9.417969 C 30.253906 9.921875 30.261719 10.464844 30.144531 10.972656 C 30.03125 11.476562 29.808594 11.941406 29.519531 12.34375 C 29.109375 12.914062 28.578125 13.371094 27.960938 13.6875 C 27.921875 14.261719 27.863281 14.8125 27.796875 15.34375 C 27.941406 16.117188 28.1875 16.847656 28.582031 17.382812 C 29.394531 14.777344 30.398438 13.363281 30.921875 12.71875 C 30.351562 19.441406 31.527344 21.058594 29.132812 25.039062 C 31.1875 24.308594 33.101562 20.988281 33.683594 19.21875 C 34.128906 20.769531 34.003906 22.082031 33.890625 23.082031 C 35.636719 20.21875 36.792969 16.84375 37.144531 13.1875 Z M 37.144531 13.1875 "/>
<path style=" stroke:none;fill-rule:nonzero;fill:rgb(17.647059%,20.392157%,28.235294%);fill-opacity:1;" d="M 28.1875 11.421875 C 27.855469 11.925781 27.316406 12.339844 26.742188 12.515625 C 26.453125 12.601562 26.179688 12.652344 25.875 12.667969 C 25.566406 12.683594 25.238281 12.65625 24.847656 12.621094 L 24.816406 12.617188 C 24.710938 12.609375 24.605469 12.640625 24.519531 12.710938 C 24.34375 12.859375 24.324219 13.113281 24.46875 13.289062 C 24.769531 13.648438 25.199219 13.902344 25.679688 14.03125 C 25.910156 14.09375 26.148438 14.117188 26.386719 14.113281 C 25.828125 20.386719 23.382812 23.582031 21.375 25.175781 C 19.351562 26.777344 17.289062 27.105469 16.136719 26.902344 C 10.789062 25.945312 7.675781 21.246094 7.554688 13.984375 C 7.976562 13.84375 8.347656 13.609375 8.617188 13.289062 C 8.683594 13.207031 8.722656 13.101562 8.710938 12.988281 C 8.691406 12.765625 8.492188 12.597656 8.269531 12.617188 L 8.238281 12.621094 C 7.847656 12.65625 7.519531 12.683594 7.210938 12.667969 C 6.90625 12.652344 6.632812 12.601562 6.34375 12.515625 C 5.769531 12.339844 5.230469 11.925781 4.898438 11.421875 C 4.605469 10.980469 4.480469 10.488281 4.546875 10.019531 C 4.582031 9.996094 4.625 9.972656 4.671875 9.949219 C 4.8125 9.886719 4.988281 9.839844 5.179688 9.816406 C 5.554688 9.765625 5.972656 9.800781 6.371094 9.90625 C 6.765625 10.007812 7.144531 10.1875 7.457031 10.4375 C 7.769531 10.6875 8.007812 11.015625 8.132812 11.398438 L 8.132812 11.410156 C 8.191406 11.589844 8.375 11.703125 8.566406 11.667969 C 8.773438 11.632812 8.914062 11.433594 8.878906 11.222656 C 8.78125 10.671875 8.503906 10.148438 8.117188 9.742188 C 7.730469 9.332031 7.257812 9.027344 6.75 8.816406 C 6.359375 8.65625 5.945312 8.542969 5.507812 8.496094 C 5.546875 8.46875 5.582031 8.4375 5.621094 8.410156 C 5.871094 8.234375 6.152344 8.097656 6.414062 8.023438 C 6.546875 7.984375 6.671875 7.976562 6.78125 7.96875 L 6.996094 7.980469 C 7.0625 7.992188 7.136719 8 7.203125 8.011719 C 7.753906 8.121094 8.292969 8.46875 8.792969 8.96875 C 9.292969 9.464844 9.753906 10.070312 10.25 10.710938 C 10.503906 11.03125 10.769531 11.363281 11.109375 11.691406 C 11.28125 11.855469 11.480469 12.023438 11.730469 12.171875 C 11.851562 12.242188 11.992188 12.308594 12.148438 12.359375 C 12.253906 12.410156 12.367188 12.441406 12.492188 12.441406 L 13.019531 12.441406 L 13.019531 14.320312 C 13.019531 14.742188 13.363281 15.085938 13.789062 15.085938 C 14.210938 15.085938 14.554688 14.742188 14.554688 14.320312 L 14.554688 12.441406 L 15.671875 12.441406 L 15.671875 14.320312 C 15.671875 14.742188 16.015625 15.085938 16.441406 15.085938 C 16.863281 15.085938 17.207031 14.742188 17.207031 14.320312 L 17.207031 12.441406 L 18.53125 12.441406 L 18.53125 14.320312 C 18.53125 14.742188 18.875 15.085938 19.296875 15.085938 C 19.722656 15.085938 20.066406 14.742188 20.066406 14.320312 L 20.066406 12.441406 L 20.386719 12.441406 C 20.765625 12.449219 21.105469 12.316406 21.355469 12.171875 C 21.605469 12.023438 21.804688 11.855469 21.976562 11.691406 C 22.316406 11.363281 22.582031 11.03125 22.835938 10.710938 C 23.335938 10.070312 23.792969 9.464844 24.292969 8.96875 C 24.792969 8.46875 25.332031 8.121094 25.882812 8.011719 C 25.953125 8 26.023438 7.992188 26.09375 7.980469 L 26.304688 7.96875 C 26.414062 7.976562 26.539062 7.984375 26.671875 8.023438 C 26.933594 8.097656 27.214844 8.234375 27.460938 8.410156 C 27.503906 8.4375 27.539062 8.46875 27.578125 8.496094 C 27.140625 8.542969 26.726562 8.65625 26.335938 8.816406 C 25.828125 9.027344 25.355469 9.332031 24.96875 9.742188 C 24.582031 10.148438 24.304688 10.671875 24.207031 11.222656 C 24.175781 11.410156 24.28125 11.59375 24.46875 11.65625 C 24.671875 11.722656 24.886719 11.609375 24.953125 11.410156 L 24.957031 11.398438 C 25.082031 11.015625 25.320312 10.6875 25.628906 10.4375 C 25.941406 10.1875 26.320312 10.007812 26.714844 9.90625 C 27.113281 9.800781 27.53125 9.765625 27.90625 9.816406 C 28.09375 9.839844 28.273438 9.886719 28.414062 9.949219 C 28.460938 9.972656 28.503906 9.996094 28.539062 10.019531 C 28.605469 10.488281 28.480469 10.980469 28.1875 11.421875 Z M 30.132812 9.417969 C 30.011719 8.910156 29.785156 8.445312 29.496094 8.042969 C 29.207031 7.640625 28.859375 7.292969 28.460938 7.007812 C 28.066406 6.726562 27.621094 6.496094 27.117188 6.359375 C 26.867188 6.285156 26.59375 6.25 26.304688 6.242188 C 26.179688 6.246094 26.050781 6.25 25.921875 6.261719 C 25.796875 6.277344 25.667969 6.292969 25.542969 6.316406 C 25.039062 6.417969 24.566406 6.625 24.160156 6.882812 C 23.75 7.140625 23.398438 7.445312 23.085938 7.761719 C 22.464844 8.398438 21.988281 9.085938 21.523438 9.710938 C 21.296875 10.023438 21.070312 10.320312 20.847656 10.554688 C 20.738281 10.671875 20.628906 10.765625 20.542969 10.828125 C 20.457031 10.886719 20.40625 10.902344 20.386719 10.90625 L 12.699219 10.90625 C 12.679688 10.902344 12.632812 10.886719 12.542969 10.828125 C 12.453125 10.765625 12.347656 10.671875 12.238281 10.554688 C 12.015625 10.320312 11.792969 10.023438 11.5625 9.710938 C 11.097656 9.085938 10.621094 8.398438 10 7.761719 C 9.6875 7.445312 9.335938 7.140625 8.929688 6.882812 C 8.519531 6.625 8.046875 6.417969 7.542969 6.316406 C 7.417969 6.292969 7.289062 6.277344 7.164062 6.261719 C 7.035156 6.25 6.90625 6.246094 6.78125 6.242188 C 6.492188 6.25 6.21875 6.285156 5.96875 6.359375 C 5.464844 6.496094 5.023438 6.726562 4.625 7.007812 C 4.226562 7.292969 3.878906 7.640625 3.589844 8.042969 C 3.300781 8.445312 3.074219 8.910156 2.953125 9.417969 C 2.832031 9.921875 2.824219 10.464844 2.941406 10.972656 C 3.058594 11.476562 3.277344 11.941406 3.566406 12.34375 C 4.144531 13.144531 4.960938 13.730469 5.914062 14 C 5.949219 14.007812 5.984375 14.015625 6.019531 14.027344 C 6.089844 18.082031 7.019531 21.410156 8.789062 23.921875 C 10.496094 26.335938 12.941406 27.890625 15.867188 28.414062 C 16.148438 28.464844 16.464844 28.492188 16.808594 28.492188 C 18.324219 28.492188 20.355469 27.941406 22.332031 26.378906 C 24.636719 24.550781 27.457031 20.871094 27.960938 13.6875 C 28.578125 13.371094 29.109375 12.914062 29.519531 12.34375 C 29.808594 11.941406 30.03125 11.476562 30.144531 10.972656 C 30.261719 10.464844 30.253906 9.921875 30.132812 9.417969 Z M 30.132812 9.417969 "/>
<path style=" stroke:none;fill-rule:nonzero;fill:rgb(17.647059%,20.392157%,28.235294%);fill-opacity:1;" d="M 19.386719 23.445312 C 19.269531 23.265625 18.972656 23.1875 18.847656 23.328125 C 18.222656 24.042969 17.609375 24.050781 17.222656 23.945312 C 16.984375 23.878906 16.824219 23.65625 16.824219 23.40625 L 16.824219 23.101562 L 17.839844 22.222656 L 18.695312 21.480469 C 18.882812 21.316406 18.765625 21.007812 18.519531 21.007812 L 14.359375 21.007812 C 14.109375 21.007812 13.996094 21.316406 14.183594 21.480469 L 15.039062 22.222656 L 16.054688 23.101562 L 16.054688 23.632812 C 16.054688 23.75 16.015625 23.871094 15.929688 23.953125 C 15.636719 24.226562 15.101562 24 15.015625 24.355469 C 14.976562 24.507812 15.050781 24.671875 15.179688 24.765625 C 15.53125 25.035156 15.882812 25.121094 16.238281 25.15625 C 16.410156 25.167969 16.585938 25.160156 16.757812 25.160156 L 17.019531 25.152344 L 17.148438 25.144531 L 17.300781 25.132812 C 17.714844 25.097656 18.128906 25 18.523438 24.789062 C 18.71875 24.683594 18.90625 24.546875 19.070312 24.375 C 19.234375 24.207031 19.367188 23.996094 19.433594 23.761719 C 19.460938 23.660156 19.449219 23.542969 19.386719 23.445312 Z M 19.386719 23.445312 "/>
<path style=" stroke:none;fill-rule:nonzero;fill:rgb(100%,100%,100%);fill-opacity:1;" d="M 22.667969 19.351562 C 22.585938 18.820312 22.386719 18.667969 21.828125 18.734375 C 21.761719 18.742188 21.695312 18.761719 21.628906 18.78125 C 21.628906 18.78125 21.625 18.78125 21.625 18.78125 C 21.207031 18.910156 20.835938 19.253906 20.578125 19.632812 C 20.375 19.929688 20.199219 20.417969 20.425781 20.664062 C 20.640625 20.90625 21.316406 20.597656 21.78125 20.441406 C 22.121094 20.328125 22.796875 20.199219 22.667969 19.351562 Z M 22.667969 19.351562 "/>
<path style=" stroke:none;fill-rule:nonzero;fill:rgb(100%,76.470588%,17.647059%);fill-opacity:1;" d="M 21.167969 19.011719 C 21.238281 19.539062 21.722656 19.914062 22.253906 19.84375 C 22.78125 19.773438 23.15625 19.289062 23.085938 18.757812 C 23.015625 18.230469 22.53125 17.855469 22 17.925781 C 21.472656 17.996094 21.097656 18.480469 21.167969 19.011719 Z M 21.167969 19.011719 "/>
<path style=" stroke:none;fill-rule:nonzero;fill:rgb(100%,76.470588%,17.647059%);fill-opacity:1;" d="M 22.003906 17.925781 C 20.996094 18.058594 20.378906 20.023438 20.71875 20.222656 C 20.945312 20.359375 20.605469 20.0625 22.253906 19.84375 "/>
<path style=" stroke:none;fill-rule:nonzero;fill:rgb(17.647059%,20.392157%,28.235294%);fill-opacity:1;" d="M 23.085938 19.148438 C 23.078125 18.613281 22.53125 18.246094 22 18.316406 C 21.855469 18.332031 21.722656 18.386719 21.605469 18.464844 C 20.800781 18.949219 20.355469 20.128906 20.648438 20.300781 C 20.875 20.4375 21.164062 19.949219 22.128906 20.0625 C 22.6875 20.128906 23.09375 19.71875 23.085938 19.148438 Z M 23.085938 19.148438 "/>
<path style=" stroke:none;fill-rule:nonzero;fill:rgb(100%,100%,100%);fill-opacity:1;" d="M 10.214844 19.351562 C 10.292969 18.820312 10.492188 18.667969 11.050781 18.734375 C 11.121094 18.742188 11.1875 18.761719 11.25 18.78125 C 11.253906 18.78125 11.253906 18.78125 11.257812 18.78125 C 11.675781 18.910156 12.046875 19.253906 12.304688 19.632812 C 12.507812 19.929688 12.679688 20.417969 12.457031 20.664062 C 12.238281 20.90625 11.566406 20.597656 11.101562 20.441406 C 10.757812 20.328125 10.082031 20.199219 10.214844 19.351562 Z M 10.214844 19.351562 "/>
<path style=" stroke:none;fill-rule:nonzero;fill:rgb(100%,76.470588%,17.647059%);fill-opacity:1;" d="M 11.710938 19.011719 C 11.640625 19.539062 11.15625 19.914062 10.625 19.84375 C 10.09375 19.773438 9.722656 19.289062 9.792969 18.757812 C 9.863281 18.230469 10.347656 17.855469 10.875 17.925781 C 11.40625 17.996094 11.78125 18.480469 11.710938 19.011719 Z M 11.710938 19.011719 "/>
<path style=" stroke:none;fill-rule:nonzero;fill:rgb(100%,76.470588%,17.647059%);fill-opacity:1;" d="M 10.878906 17.925781 C 11.886719 18.058594 12.503906 20.023438 12.160156 20.222656 C 11.933594 20.359375 12.273438 20.0625 10.625 19.84375 "/>
<path style=" stroke:none;fill-rule:nonzero;fill:rgb(17.647059%,20.392157%,28.235294%);fill-opacity:1;" d="M 9.792969 19.148438 C 9.800781 18.613281 10.347656 18.246094 10.878906 18.316406 C 11.027344 18.332031 11.160156 18.386719 11.277344 18.464844 C 12.078125 18.949219 12.523438 20.128906 12.230469 20.300781 C 12.003906 20.4375 11.714844 19.949219 10.753906 20.0625 C 10.191406 20.128906 9.785156 19.71875 9.792969 19.148438 Z M 9.792969 19.148438 "/>
<path style=" stroke:none;fill-rule:nonzero;fill:rgb(100%,76.470588%,17.647059%);fill-opacity:1;" d="M 19.742188 30.054688 C 20.105469 30.027344 20.429688 29.960938 20.757812 29.867188 C 20.921875 29.828125 21.082031 29.765625 21.238281 29.722656 L 21.714844 29.558594 C 22.34375 29.332031 22.953125 29.066406 23.546875 28.777344 C 24.140625 28.488281 24.71875 28.171875 25.269531 27.808594 C 25.824219 27.441406 26.34375 27.035156 26.832031 26.503906 C 26.703125 27.222656 26.265625 27.871094 25.753906 28.386719 C 25.234375 28.90625 24.621094 29.324219 23.964844 29.640625 C 23.3125 29.957031 22.617188 30.183594 21.894531 30.289062 C 21.710938 30.308594 21.53125 30.335938 21.351562 30.339844 C 21.164062 30.34375 20.984375 30.351562 20.800781 30.335938 C 20.617188 30.316406 20.433594 30.304688 20.253906 30.25 C 20.164062 30.222656 20.078125 30.210938 19.992188 30.171875 C 19.90625 30.132812 19.820312 30.097656 19.742188 30.054688 Z M 19.742188 30.054688 "/>
<path style=" stroke:none;fill-rule:nonzero;fill:rgb(100%,100%,100%);fill-opacity:1;" d="M 32.328125 4.480469 C 32.328125 5.207031 31.734375 5.800781 31.007812 5.800781 C 30.277344 5.800781 29.6875 5.207031 29.6875 4.480469 C 29.6875 3.75 30.277344 3.160156 31.007812 3.160156 C 31.734375 3.160156 32.328125 3.75 32.328125 4.480469 Z M 32.328125 4.480469 "/>
<path style=" stroke:none;fill-rule:nonzero;fill:rgb(100%,100%,100%);fill-opacity:1;" d="M 12.597656 14.394531 L 13.027344 14.394531 C 13.027344 14.371094 13.019531 14.34375 13.019531 14.320312 L 13.019531 12.445312 L 12.492188 12.445312 C 12.367188 12.445312 12.253906 12.410156 12.148438 12.359375 C 11.992188 12.308594 11.851562 12.242188 11.730469 12.171875 C 11.480469 12.023438 11.28125 11.855469 11.109375 11.691406 C 10.769531 11.363281 10.507812 11.03125 10.25 10.710938 C 9.753906 10.070312 9.292969 9.464844 8.792969 8.964844 C 8.292969 8.46875 7.753906 8.125 7.203125 8.011719 C 7.132812 8 7.0625 7.992188 6.996094 7.980469 L 6.78125 7.96875 C 6.671875 7.976562 6.546875 7.984375 6.414062 8.027344 C 6.152344 8.097656 5.871094 8.234375 5.625 8.410156 C 5.582031 8.4375 5.546875 8.46875 5.507812 8.496094 C 5.945312 8.542969 6.359375 8.65625 6.75 8.816406 C 7.257812 9.027344 7.730469 9.332031 8.117188 9.742188 C 8.332031 9.972656 8.515625 10.238281 8.652344 10.527344 C 10.378906 11.808594 11.363281 14.394531 12.597656 14.394531 Z M 12.597656 14.394531 "/>
<path style=" stroke:none;fill-rule:nonzero;fill:rgb(100%,100%,100%);fill-opacity:1;" d="M 14.558594 12.441406 L 14.558594 14.320312 C 14.558594 14.34375 14.550781 14.371094 14.550781 14.394531 L 15.679688 14.394531 C 15.679688 14.371094 15.671875 14.34375 15.671875 14.320312 L 15.671875 12.441406 Z M 14.558594 12.441406 "/>
<path style=" stroke:none;fill-rule:nonzero;fill:rgb(100%,100%,100%);fill-opacity:1;" d="M 24.546875 10.3125 C 24.664062 10.105469 24.808594 9.914062 24.96875 9.742188 C 25.355469 9.332031 25.828125 9.027344 26.335938 8.816406 C 26.726562 8.65625 27.140625 8.542969 27.578125 8.496094 C 27.539062 8.46875 27.503906 8.4375 27.464844 8.410156 C 27.214844 8.234375 26.933594 8.097656 26.671875 8.027344 C 26.539062 7.984375 26.414062 7.976562 26.304688 7.96875 L 26.089844 7.980469 C 26.023438 7.992188 25.953125 8 25.882812 8.011719 C 25.332031 8.125 24.792969 8.46875 24.292969 8.96875 C 23.792969 9.464844 23.332031 10.070312 22.835938 10.710938 C 22.582031 11.03125 22.316406 11.359375 21.976562 11.691406 C 21.804688 11.859375 21.605469 12.023438 21.351562 12.171875 C 21.105469 12.316406 20.765625 12.449219 20.386719 12.441406 L 20.066406 12.441406 L 20.066406 14.320312 C 20.066406 14.34375 20.0625 14.371094 20.058594 14.394531 L 20.285156 14.394531 C 21.589844 14.394531 22.617188 11.488281 24.546875 10.3125 Z M 24.546875 10.3125 "/>
<path style=" stroke:none;fill-rule:nonzero;fill:rgb(100%,100%,100%);fill-opacity:1;" d="M 17.207031 12.441406 L 17.207031 14.320312 C 17.207031 14.34375 17.203125 14.371094 17.199219 14.394531 L 18.539062 14.394531 C 18.535156 14.371094 18.53125 14.34375 18.53125 14.320312 L 18.53125 12.441406 Z M 17.207031 12.441406 "/>
<path style=" stroke:none;fill-rule:nonzero;fill:rgb(100%,76.470588%,17.647059%);fill-opacity:1;" d="M 8.546875 11.671875 C 8.363281 11.695312 8.191406 11.582031 8.132812 11.410156 L 8.132812 11.398438 C 8.007812 11.015625 7.769531 10.691406 7.457031 10.4375 C 7.148438 10.1875 6.769531 10.007812 6.371094 9.90625 C 5.976562 9.800781 5.554688 9.765625 5.179688 9.816406 C 4.992188 9.839844 4.816406 9.886719 4.671875 9.949219 C 4.625 9.96875 4.582031 9.996094 4.546875 10.019531 C 4.527344 10.171875 4.527344 10.324219 4.542969 10.472656 C 6.585938 9.984375 7.507812 11.941406 8.546875 11.671875 Z M 8.546875 11.671875 "/>
<path style=" stroke:none;fill-rule:nonzero;fill:rgb(100%,76.470588%,17.647059%);fill-opacity:1;" d="M 28.539062 10.019531 C 28.503906 9.996094 28.460938 9.96875 28.414062 9.949219 C 28.273438 9.886719 28.09375 9.839844 27.90625 9.816406 C 27.53125 9.765625 27.113281 9.800781 26.714844 9.90625 C 26.320312 10.007812 25.941406 10.1875 25.628906 10.4375 C 25.316406 10.6875 25.082031 11.015625 24.953125 11.398438 L 24.953125 11.410156 C 24.894531 11.585938 24.722656 11.691406 24.542969 11.671875 C 25.582031 11.933594 26.503906 9.984375 28.542969 10.472656 C 28.558594 10.320312 28.5625 10.167969 28.539062 10.019531 Z M 28.539062 10.019531 "/>
<path style=" stroke:none;fill-rule:nonzero;fill:rgb(100%,100%,100%);fill-opacity:1;" d="M 3.996094 12.851562 C 3.648438 14.148438 3.464844 15.484375 3.464844 16.84375 C 3.464844 20.25 4.582031 23.394531 6.46875 25.941406 C 5.296875 23.710938 4.628906 21.171875 4.628906 18.476562 C 4.628906 16.84375 4.875 15.269531 5.328125 13.785156 C 4.828125 13.5625 4.378906 13.246094 3.996094 12.851562 Z M 3.996094 12.851562 "/>
<path style=" stroke:none;fill-rule:nonzero;fill:rgb(100%,100%,100%);fill-opacity:1;" d="M 36.367188 1.535156 L 18.777344 1.535156 C 14.492188 1.535156 10.519531 3.269531 7.636719 6.339844 C 8.105469 6.445312 8.546875 6.640625 8.929688 6.882812 C 9.058594 6.964844 9.183594 7.054688 9.304688 7.144531 C 12.214844 4.214844 16.246094 2.402344 20.707031 2.402344 L 20.707031 2.398438 L 35.582031 2.398438 C 35.839844 2.097656 36.101562 1.808594 36.367188 1.535156 Z M 36.367188 1.535156 "/>
<path style=" stroke:none;fill-rule:nonzero;fill:rgb(17.647059%,20.392157%,28.235294%);fill-opacity:1;" d="M 30.792969 43.792969 C 30.792969 43.816406 30.796875 43.839844 30.796875 43.867188 C 30.660156 44.078125 30.28125 44.25 29.914062 44.25 L 27.742188 44.25 C 26.890625 44.25 26.199219 43.558594 26.199219 42.703125 C 26.199219 41.085938 26.707031 40.8125 27.25 40.523438 C 27.339844 40.472656 27.425781 40.425781 27.507812 40.378906 C 27.703125 40.261719 27.835938 40.0625 27.871094 39.839844 C 27.910156 39.613281 27.84375 39.386719 27.695312 39.214844 C 27.433594 38.917969 27.175781 38.554688 26.925781 38.179688 C 27.550781 38.222656 28.199219 38.214844 28.859375 38.152344 C 29.601562 39.269531 30.589844 40.121094 31.683594 40.542969 C 30.792969 41.773438 30.792969 43.078125 30.792969 43.792969 Z M 41.6875 28.316406 C 41.648438 28.050781 41.601562 27.78125 41.542969 27.5 C 41.4375 27.003906 41.292969 26.53125 41.113281 26.082031 C 41.382812 26.4375 41.382812 26.4375 41.113281 26.082031 C 40.21875 23.859375 38.425781 22.285156 36.304688 21.847656 C 36.066406 22.335938 35.816406 22.816406 35.550781 23.28125 C 38.042969 23.507812 39.59375 25.667969 40.039062 27.8125 C 40.738281 31.179688 39.882812 33.4375 39.316406 34.929688 C 38.976562 35.824219 38.734375 36.46875 39.023438 37.046875 C 39.53125 38.058594 39.769531 39.210938 39.769531 43.035156 C 39.769531 44.734375 38.582031 45.339844 37.46875 45.339844 L 33.875 45.339844 C 32.996094 45.339844 32.328125 44.671875 32.328125 43.792969 C 32.328125 42.957031 32.328125 41.695312 33.6875 40.6875 C 33.957031 40.492188 34.066406 40.148438 33.960938 39.832031 C 33.855469 39.515625 33.5625 39.304688 33.230469 39.304688 C 31.335938 39.304688 29.488281 37.183594 29.117188 34.578125 C 29.058594 34.160156 28.667969 33.867188 28.25 33.929688 C 27.828125 33.988281 27.539062 34.378906 27.597656 34.796875 C 27.691406 35.453125 27.859375 36.078125 28.089844 36.664062 C 25.988281 36.75 24.160156 36.207031 22.523438 35.011719 C 22.289062 34.84375 21.980469 34.816406 21.722656 34.949219 C 21.464844 35.078125 21.300781 35.34375 21.300781 35.632812 L 21.300781 43.792969 C 21.300781 44.644531 20.609375 45.339844 19.757812 45.339844 L 16.496094 45.339844 C 15.644531 45.339844 14.949219 44.644531 14.949219 43.792969 C 14.949219 42.929688 15.164062 42.296875 15.582031 41.921875 C 15.90625 41.632812 16.382812 41.457031 16.996094 41.402344 C 17.417969 41.363281 17.730469 40.992188 17.691406 40.566406 C 17.652344 40.144531 17.28125 39.835938 16.859375 39.871094 C 16.4375 39.910156 16.050781 39.992188 15.699219 40.117188 L 15.699219 33.410156 C 15.179688 33.3125 14.667969 33.191406 14.164062 33.050781 L 14.164062 34.714844 C 12.875 34.8125 11.636719 35.691406 10.953125 36.269531 C 10.84375 36.363281 10.695312 36.492188 10.539062 36.640625 C 10.507812 36.59375 10.480469 36.546875 10.449219 36.5 C 10.246094 36.21875 9.972656 35.976562 9.65625 35.832031 C 9.570312 35.792969 9.46875 35.78125 9.371094 35.8125 C 9.152344 35.878906 9.03125 36.105469 9.09375 36.320312 L 9.113281 36.375 C 9.1875 36.632812 9.25 36.855469 9.296875 37.078125 C 9.339844 37.296875 9.375 37.511719 9.394531 37.722656 C 9.402344 37.824219 9.410156 37.921875 9.40625 38.003906 C 9.402344 38.117188 9.394531 38.230469 9.378906 38.339844 C 9.347656 38.5625 9.292969 38.777344 9.210938 38.984375 C 8.894531 39.8125 8.175781 40.472656 7.335938 40.710938 C 6.914062 40.832031 6.472656 40.859375 6.035156 40.789062 C 5.597656 40.714844 5.167969 40.550781 4.789062 40.304688 C 4.027344 39.820312 3.484375 39.023438 3.410156 38.207031 C 3.402344 38.15625 3.398438 38.105469 3.398438 38.054688 L 3.394531 37.976562 L 3.398438 37.886719 C 3.40625 37.761719 3.402344 37.640625 3.417969 37.519531 C 3.429688 37.398438 3.4375 37.277344 3.457031 37.15625 L 3.523438 36.792969 C 3.621094 36.308594 3.789062 35.835938 3.996094 35.375 C 4.417969 34.457031 5.03125 33.605469 5.757812 32.859375 C 6.484375 32.109375 7.328125 31.460938 8.234375 30.957031 C 8.492188 30.816406 8.753906 30.6875 9.023438 30.574219 C 8.527344 30.21875 8.050781 29.839844 7.597656 29.4375 C 7.550781 29.460938 7.503906 29.480469 7.457031 29.507812 C 6.375 30.070312 5.402344 30.804688 4.539062 31.660156 C 3.6875 32.519531 2.945312 33.515625 2.417969 34.644531 C 2.152344 35.210938 1.945312 35.808594 1.816406 36.433594 C 1.785156 36.589844 1.761719 36.746094 1.734375 36.902344 C 1.710938 37.058594 1.699219 37.21875 1.679688 37.378906 C 1.664062 37.535156 1.664062 37.699219 1.660156 37.859375 L 1.65625 37.980469 L 1.660156 38.113281 C 1.660156 38.203125 1.667969 38.292969 1.675781 38.382812 C 1.746094 39.097656 2.015625 39.777344 2.402344 40.351562 C 2.792969 40.925781 3.304688 41.394531 3.875 41.753906 C 4.453125 42.113281 5.097656 42.355469 5.777344 42.457031 C 6.453125 42.558594 7.164062 42.507812 7.824219 42.296875 C 9.148438 41.878906 10.230469 40.820312 10.6875 39.523438 C 10.785156 39.246094 10.851562 38.957031 10.894531 38.660156 C 10.910156 38.621094 10.921875 38.574219 10.929688 38.53125 C 11.1875 38.027344 12.863281 36.421875 14.164062 36.253906 L 14.164062 41.210938 C 13.667969 41.863281 13.414062 42.726562 13.414062 43.792969 C 13.414062 45.492188 14.796875 46.875 16.496094 46.875 L 19.757812 46.875 C 21.457031 46.875 22.839844 45.492188 22.839844 43.792969 L 22.839844 37.023438 C 23.5 37.378906 24.195312 37.652344 24.917969 37.847656 C 24.933594 37.890625 24.953125 37.933594 24.980469 37.972656 C 25.28125 38.46875 25.617188 39.007812 25.972656 39.503906 C 25.269531 40.011719 24.660156 40.839844 24.660156 42.703125 C 24.660156 44.40625 26.042969 45.785156 27.742188 45.785156 L 29.914062 45.785156 C 30.359375 45.785156 30.839844 45.667969 31.261719 45.441406 C 31.800781 46.308594 32.757812 46.875 33.875 46.875 L 37.46875 46.875 C 39.726562 46.875 41.308594 45.296875 41.308594 43.035156 C 41.308594 39.378906 41.101562 37.808594 40.433594 36.433594 C 40.457031 36.253906 40.617188 35.824219 40.75 35.476562 C 41.300781 34.03125 42.1875 31.679688 41.6875 28.316406 Z M 41.6875 28.316406 "/>
<path style=" stroke:none;fill-rule:nonzero;fill:rgb(17.647059%,20.392157%,28.235294%);fill-opacity:1;" d="M 48.574219 22.054688 C 48.574219 23.09375 47.730469 23.9375 46.695312 23.9375 C 45.660156 23.9375 44.816406 23.09375 44.816406 22.054688 C 44.816406 20.582031 45.351562 19.355469 46.328125 18.601562 C 47.070312 18.027344 48.054688 17.734375 49.1875 17.734375 C 49.429688 17.734375 49.679688 17.75 49.933594 17.777344 C 49.011719 18.96875 48.574219 20.359375 48.574219 22.054688 Z M 52.203125 17.101562 C 52.136719 16.824219 51.925781 16.605469 51.648438 16.535156 C 49.164062 15.886719 46.941406 16.1875 45.386719 17.386719 C 44.03125 18.4375 43.28125 20.09375 43.28125 22.054688 C 43.28125 23.398438 44.058594 24.558594 45.1875 25.117188 C 45.054688 25.847656 45.054688 25.847656 45.1875 25.117188 C 45.640625 25.339844 46.148438 25.46875 46.683594 25.472656 C 46.6875 25.472656 46.691406 25.472656 46.695312 25.472656 C 48.578125 25.472656 50.109375 23.941406 50.109375 22.054688 C 50.109375 20.277344 50.683594 18.980469 51.960938 17.855469 C 52.175781 17.667969 52.269531 17.378906 52.203125 17.101562 Z M 52.203125 17.101562 "/>
<path style=" stroke:none;fill-rule:nonzero;fill:rgb(17.647059%,20.392157%,28.235294%);fill-opacity:1;" d="M 45.1875 25.117188 C 44.992188 26.183594 44.058594 26.992188 42.9375 26.992188 C 42.21875 26.992188 41.542969 26.652344 41.113281 26.082031 C 41.292969 26.53125 41.4375 27.003906 41.542969 27.5 C 41.601562 27.78125 41.648438 28.050781 41.6875 28.316406 C 42.085938 28.453125 42.507812 28.527344 42.9375 28.527344 C 44.785156 28.527344 46.328125 27.214844 46.683594 25.472656 C 46.148438 25.46875 45.640625 25.339844 45.1875 25.117188 Z M 45.1875 25.117188 "/>
</g>
</svg>
